<svg id="Capa_1" data-name="Capa 1" xmlns="http://www.w3.org/2000/svg" viewBox="0 0 846 345"><defs><style>.cls-1{fill:#00509f;}.cls-2{fill:#989898;}</style></defs><path class="cls-1" d="M252.7,181.65H219.8v-73.1h36c9.3,0,15.7,3.2,19.3,9.5a21.61,21.61,0,0,1,2.7,10.5c0,6.9-3,11.5-8.9,13.7a15.86,15.86,0,0,1,8.4,6.9,21,21,0,0,1,2.7,10.7c0,7.7-2.8,13.3-8.3,17.1-4.7,3.1-11.1,4.7-19,4.7m10.4-52.5q0-4.8-3.3-6.6c-1.7-.9-4.2-1.3-7.6-1.3H234.5v15.9h18.6c6.6,0,10-2.7,10-8m-1.4,22.6a13.6,13.6,0,0,0-7.7-2.2H234.4v19.7h19.4a11.92,11.92,0,0,0,8-2.9,9.63,9.63,0,0,0,3.3-7.6,7.49,7.49,0,0,0-3.4-7"/><path class="cls-1" d="M334.4,158.35H297.1a15.5,15.5,0,0,0,3.4,9.2,10.75,10.75,0,0,0,8.9,4,12.84,12.84,0,0,0,5.9-1.4,7.76,7.76,0,0,0,3.9-4.5h14.6a22.85,22.85,0,0,1-8.7,12.7,25,25,0,0,1-14.9,4.5c-18.1,0-27.1-9.8-27.1-29.5,0-8.3,2.3-14.9,6.9-19.9s11-7.4,19.3-7.4c16.6.1,25.1,10.8,25.1,32.3m-14.6-9a13.44,13.44,0,0,0-3.2-8.1,9.75,9.75,0,0,0-7.8-3.7,9.42,9.42,0,0,0-7.7,3.7,16.4,16.4,0,0,0-3.3,8.1Z"/><path class="cls-1" d="M387.9,181.65H373.6V149c0-3.8-.6-6.5-1.7-8-1.5-1.8-4-2.7-7.7-2.7-7.4,0-11.1,4.2-11.1,12.5v30.9H338.8v-54.2h13.8v5.1a15,15,0,0,0,.1,3c0-.1,0-.1.1-.1a17.12,17.12,0,0,1,7.2-6.9,20.61,20.61,0,0,1,10-2.5q10.8,0,15.6,8.4a19.47,19.47,0,0,1,2.2,9.8v37.4Z"/><path class="cls-1" d="M442,146.85H427.7a11.22,11.22,0,0,0-3.2-6.3,8.52,8.52,0,0,0-6.3-2.5c-3.9,0-6.8,1.8-8.9,5.3a19.79,19.79,0,0,0-2.5,10.4c0,11.7,3.5,17.6,10.7,17.6a8.82,8.82,0,0,0,6.8-2.6,11.14,11.14,0,0,0,3.2-6.8H442a22.84,22.84,0,0,1-8.2,15.4,25.06,25.06,0,0,1-16.7,5.9c-8.1.1-14.4-2.6-18.7-7.9-4.1-4.9-6.1-11.5-6.1-19.8,0-8.8,2-15.8,5.9-20.9,4.4-5.7,10.9-8.6,19.4-8.6,6.8,0,12.3,1.8,16.8,5.3,4.6,3.7,7.2,8.9,7.6,15.5"/><path class="cls-1" d="M494.9,181.65H480.6V149c0-3.7-.6-6.4-1.8-8q-2.1-2.7-7.5-2.7a9.93,9.93,0,0,0-8.2,3.6,13.79,13.79,0,0,0-2.9,8.9v30.9H445.9v-73.1h14.3v26c1.2-2.6,3.5-4.6,6.8-6a23.23,23.23,0,0,1,9.2-1.8c5.5,0,10.1,1.5,13.6,4.6s5.2,7.3,5.2,12.8v37.5Z"/><path class="cls-1" d="M578.1,181.65h-14v-32.6a13.83,13.83,0,0,0-1.9-7.4,7.32,7.32,0,0,0-6.4-3.6,8,8,0,0,0-6.9,3.6,13.48,13.48,0,0,0-2.2,7.8v32.1H532.3v-32.5c0-3.7-.5-6.4-1.4-7.9-1.2-2-3.6-3.1-7.1-3.1-5.8,0-8.8,3.5-8.8,10.6v32.9H500.7v-54.2h13.5v5.2a15,15,0,0,0,.1,3c0-.1,0-.1.1-.2a24.58,24.58,0,0,1,6.4-7,19.72,19.72,0,0,1,17.9-.3,19.56,19.56,0,0,1,6.3,6.7c4-5.8,8.9-8.7,14.6-8.7a20.78,20.78,0,0,1,9.7,2.4,16,16,0,0,1,6.9,7,20.94,20.94,0,0,1,2,8.8v37.4Z"/><path class="cls-1" d="M630.7,181.65H617.4a15.69,15.69,0,0,1-1.3-4.4c-3.3,3.7-8.6,5.6-15.8,5.6-5.2,0-9.4-1.2-12.7-3.7-3.6-2.7-5.4-6.6-5.4-11.6q0-11.1,8.7-15.3c2.6-1.3,8.1-2.4,16.2-3.5,5.8-.7,8.7-2.3,8.7-4.7a5.78,5.78,0,0,0-2.7-5.1,10.58,10.58,0,0,0-6-1.8,9.58,9.58,0,0,0-6.4,2.2,8.68,8.68,0,0,0-3,5.9H584c.7-8.7,4.5-14.4,11.5-17a34,34,0,0,1,12.2-2c15.4.1,23.1,7.5,23.1,22.1v33.3Zm-15.1-26.4c-1.4,1.2-3.9,2.1-7.5,2.8a35.25,35.25,0,0,0-7.9,2.1,7.13,7.13,0,0,0-3.8,6.7c0,4.1,2.1,6.1,6.4,6.1a15.13,15.13,0,0,0,6-1.3,13,13,0,0,0,4.9-3.4q2.1-2.7,2.1-7.8c0-.6,0-1.5-.1-2.6s-.1-2-.1-2.6"/><path class="cls-1" d="M668.2,140.75a28,28,0,0,0-4-.3c-8.7,0-13.1,4.3-13.1,13v28.1H636.8v-54.2h13.5v4.2a8.22,8.22,0,0,0,.1,2.3c0-.1.2-.1.3-.2,2.6-2.8,4.7-4.7,6.3-5.5a19.28,19.28,0,0,1,9.2-2h1.9v14.6Z"/><polygon class="cls-1" points="722.6 181.65 706.5 181.65 694.6 157.35 687.6 164.55 687.6 181.65 673.3 181.65 673.3 108.55 687.6 108.55 687.6 148.05 705.5 127.45 723 127.45 705 147.35 722.6 181.65"/><path class="cls-2" d="M517.5,214.55a10.71,10.71,0,0,1,3.9,3.3,11.55,11.55,0,0,1,1.7,4.6,26.58,26.58,0,0,1,.4,5.7H504.8a11.74,11.74,0,0,0,1.8,6.3,6,6,0,0,0,5.3,2.4,7.39,7.39,0,0,0,5.4-2.2,8.7,8.7,0,0,0,1.6-3h4.3a9.38,9.38,0,0,1-1.1,3.2,10.83,10.83,0,0,1-2.1,2.9,10.1,10.1,0,0,1-4.9,2.6,12.48,12.48,0,0,1-3.5.4,10.82,10.82,0,0,1-8.1-3.5c-2.2-2.3-3.3-5.6-3.3-9.8s1.1-7.6,3.3-10.1a11,11,0,0,1,8.8-3.9,8.94,8.94,0,0,1,5.2,1.1m1.6,10.2a13.36,13.36,0,0,0-1.2-4.6A6.34,6.34,0,0,0,512,217a6.46,6.46,0,0,0-5,2.2,8.74,8.74,0,0,0-2.1,5.6Z"/><rect class="cls-2" x="527.9" y="204.25" width="4.4" height="35.5"/><path class="cls-2" d="M553.5,214.55a10.71,10.71,0,0,1,3.9,3.3,11.55,11.55,0,0,1,1.7,4.6,35.44,35.44,0,0,1,.4,5.7H540.8a11.74,11.74,0,0,0,1.8,6.3,6,6,0,0,0,5.3,2.4,7.39,7.39,0,0,0,5.4-2.2,8.47,8.47,0,0,0,1.5-3h4.3a9.38,9.38,0,0,1-1.1,3.2,10.83,10.83,0,0,1-2.1,2.9,10.22,10.22,0,0,1-4.8,2.6,12.48,12.48,0,0,1-3.5.4,10.82,10.82,0,0,1-8.1-3.5c-2.2-2.3-3.3-5.6-3.3-9.8s1.1-7.6,3.3-10.1a11,11,0,0,1,8.8-3.9,8.79,8.79,0,0,1,5.2,1.1m1.6,10.2a13.36,13.36,0,0,0-1.2-4.6A6.34,6.34,0,0,0,548,217a6.46,6.46,0,0,0-5,2.2,8.74,8.74,0,0,0-2.1,5.6Z"/><path class="cls-2" d="M581.2,215.15c1.8,1.4,2.9,3.9,3.3,7.3h-4.2a7.76,7.76,0,0,0-1.8-4c-.9-1.1-2.4-1.6-4.4-1.6a6.21,6.21,0,0,0-6,4.1,15.72,15.72,0,0,0-1.2,6.5,11.84,11.84,0,0,0,1.7,6.5,5.61,5.61,0,0,0,5.2,2.7,5.31,5.31,0,0,0,4.3-1.7,8.68,8.68,0,0,0,2.2-4.5h4.2c-.5,3.4-1.7,6-3.6,7.5a11.16,11.16,0,0,1-7.4,2.4,9.79,9.79,0,0,1-8.1-3.7,14.42,14.42,0,0,1-3-9.3c0-4.5,1.1-8.1,3.3-10.6a10.74,10.74,0,0,1,8.4-3.8,12,12,0,0,1,7.1,2.2"/><path class="cls-2" d="M588.6,206.65h4.3v7.2h4.2v3.6h-4.2v16.8a1.81,1.81,0,0,0,.9,1.8,3.42,3.42,0,0,0,1.7.3h1.6v3.5a7.58,7.58,0,0,1-1.6.3,9.72,9.72,0,0,1-1.8.1c-2,0-3.4-.5-4.1-1.6a7.11,7.11,0,0,1-1.1-4.1v-27.9Z"/><path class="cls-2" d="M601,213.75h4.2v4.6a9,9,0,0,1,2.5-3.2,6.35,6.35,0,0,1,4.6-1.9h.4c.2,0,.5.1,1,.1V218a2,2,0,0,0-.7-.1h-.7a6.35,6.35,0,0,0-5.1,2.1,7.24,7.24,0,0,0-1.8,4.9v14.8H601Z"/><path class="cls-2" d="M634.9,216.35c2.3,2.2,3.4,5.5,3.4,9.8a16.78,16.78,0,0,1-3,10.3c-2,2.7-5.1,4.1-9.4,4.1a10.47,10.47,0,0,1-8.4-3.6c-2.1-2.4-3.1-5.6-3.1-9.7,0-4.4,1.1-7.8,3.3-10.4a10.82,10.82,0,0,1,8.8-3.8,11.38,11.38,0,0,1,8.4,3.3m-2.6,17.2a16,16,0,0,0,1.6-7.3,12.63,12.63,0,0,0-1.2-5.9q-1.8-3.6-6.3-3.6a6.05,6.05,0,0,0-5.7,3.1,14.24,14.24,0,0,0-1.8,7.4,12.2,12.2,0,0,0,1.8,6.9c1.2,1.9,3.1,2.8,5.7,2.8,2.9-.1,4.8-1.2,5.9-3.4"/><path class="cls-2" d="M641.5,213.75h4.1v3.7a10.43,10.43,0,0,1,3.9-3.2,10,10,0,0,1,4.6-1c3.6,0,6.1,1.3,7.4,3.8a13.82,13.82,0,0,1,1,6v16.6h-4.3v-16.3a8.06,8.06,0,0,0-.7-3.8,4.3,4.3,0,0,0-4.2-2.4,9.78,9.78,0,0,0-2.6.3,7.15,7.15,0,0,0-3.1,2.1,6.66,6.66,0,0,0-1.4,2.6,19.17,19.17,0,0,0-.3,3.9v13.6h-4.3v-25.9Z"/><rect class="cls-2" x="667.2" y="213.75" width="4.3" height="25.9"/><path class="cls-2" d="M694.2,215.15c1.8,1.4,2.9,3.9,3.3,7.3h-4.2a8.66,8.66,0,0,0-1.8-4c-.9-1.1-2.4-1.6-4.4-1.6a6.21,6.21,0,0,0-6,4.1,15.72,15.72,0,0,0-1.2,6.5,11.84,11.84,0,0,0,1.7,6.5,5.72,5.72,0,0,0,5.2,2.7,5.44,5.44,0,0,0,4.3-1.7,8.68,8.68,0,0,0,2.2-4.5h4.2c-.5,3.4-1.7,6-3.6,7.5a11.16,11.16,0,0,1-7.4,2.4,9.79,9.79,0,0,1-8.1-3.7,14.42,14.42,0,0,1-3-9.3c0-4.5,1.1-8.1,3.3-10.6a10.74,10.74,0,0,1,8.4-3.8,12,12,0,0,1,7.1,2.2"/><path class="cls-2" d="M703.8,231.55a6.15,6.15,0,0,0,1.1,3.3c1.1,1.4,3,2.1,5.8,2.1a8.54,8.54,0,0,0,4.3-1,3.58,3.58,0,0,0,1.9-3.2,2.75,2.75,0,0,0-1.5-2.5,12.87,12.87,0,0,0-3.8-1.2l-3.5-.9a17.55,17.55,0,0,1-4.9-1.8,5.46,5.46,0,0,1-2.8-4.9,7.35,7.35,0,0,1,2.7-5.9,10.91,10.91,0,0,1,7.2-2.3c3.9,0,6.8,1.1,8.5,3.4a7.43,7.43,0,0,1,1.6,4.7h-4.1a4.9,4.9,0,0,0-1-2.6c-1-1.1-2.8-1.7-5.3-1.7a5.94,5.94,0,0,0-3.8,1,2.71,2.71,0,0,0-1.3,2.4,3,3,0,0,0,1.7,2.7,8.11,8.11,0,0,0,2.9,1l2.9.7a23.67,23.67,0,0,1,6.3,2.2,5.78,5.78,0,0,1,2.5,5.2,8.26,8.26,0,0,1-2.6,6c-1.7,1.7-4.4,2.5-8,2.5-3.9,0-6.6-.9-8.2-2.6a9.78,9.78,0,0,1-2.6-6.5h4Z"/><polygon class="cls-1" points="190.7 143.35 123 182.35 123 104.25 190.7 143.35"/></svg>