<svg id="Capa_1" data-name="Capa 1" xmlns="http://www.w3.org/2000/svg" viewBox="0 0 846 345"><defs><style>.cls-1{fill:#788590;}.cls-2{fill:#014281;}</style></defs><path class="cls-1" d="M167.59,256.3c-1.92.39-3.26-.45-4.58-1.9-6.73-7.39-11.66-16-16.68-24.53a263.19,263.19,0,0,1-16.78-32.81c-2.39-5.78-2.48-6.58,2.55-10.48,9.94-7.71,21.41-12.5,33.13-16.71A100.71,100.71,0,0,1,192.8,164a85.82,85.82,0,0,1,22,1.79c23.74,4.68,45.15.66,62.8-17,4.18-4.19,7.24-9.33,10.6-14.2,3-4.29,4.5-4,7.38.26,3.56,5.23,4,10.72,2.36,16.47-4.89,17.83-14.26,32.49-30.95,41.4-9.45,5-20,7-30.35,9.24-16.88,3.57-33.49,7.51-45.69,21.26-6.66,7.52-11.37,16.16-15.86,25-1,2-2.33,3.8-3.23,5.82A3.54,3.54,0,0,1,167.59,256.3Z"/><path class="cls-2" d="M217.15,86c12.47,0,24.95.15,37.41-.06,8.41-.14,14.66,2.81,18.92,10.37,3.38,6,6.87,11.91,10.08,18,3,5.79-.4,11.68-5.26,14.54-6.39,3.75-13.37,5.94-20.43,7.73-8.42,2.15-17,3.53-25.79,3-9-.58-17.73-2.6-26.55-4.07-19-3.18-36.41.15-52.7,10.61-10.11,6.5-18.45,15.24-28.6,21.63-1.28.81-2.69,2-4,.89-1-.87-.21-2.38.21-3.69,2.91-8.91,8-16.73,12.57-24.75,8.5-14.77,17.82-29,26.93-43.42,4.57-7.21,10.55-11,19.31-10.82C191.91,86.25,204.53,86,217.15,86Z"/><path class="cls-2" d="M235.78,259c-6.69,0-13.38-.08-20.06,0-3.28.06-6.6-.25-8.12-3.36-1.45-3-.15-6,1.57-8.78,10.92-17.56,26.53-28.22,46.75-32.5,11.32-2.4,21.77-6.79,30.25-15.15s12.13-19,15.59-29.84c.93-2.92,1.92-5.83,3.07-8.67,1.31-3.22,3-3.3,4.94-.38,4.65,7.11,7,13.88,2,22.43-10.42,18.13-20.39,36.52-31.14,54.47-3.45,5.76-5.9,12.21-11,16.87A18.24,18.24,0,0,1,257.17,259c-7.13.06-14.26,0-21.39,0Z"/><path class="cls-2" d="M461.58,188.23a20.1,20.1,0,0,0-3.62,0c-7.68,1.6-13-.85-15.41-8.65-.54-1.76-1.8-2.06-3.45-2-7.42.06-14.85.14-22.28,0-2.46-.06-3.55,1.12-4.11,3.12-1.8,6.43-5.86,8.25-12.46,7.79-10.49-.73-21.05-.05-31.58-.75-10.84-.71-19.14-7.54-20.38-18.42-1-9.08,2-19.62,13.5-23.66,5.42-1.91,11-1.95,16.55-2.34,6.06-.42,12.19.15,18.26-.21,3.72-.21,3.2,1.91,3.25,4.15s.2,4.19-3.33,4c-6.67-.33-13.37-.12-20-.07-8,.05-13.23,5.35-13.2,13.42,0,4.64-.76,9.36,3.14,13.33a7.15,7.15,0,0,0,5.52,2.55c8,0,16.05-.05,24.07.12a4.71,4.71,0,0,0,4.87-2.74c6.08-10.6,12.46-21,18.5-31.64,1.41-2.49,3.1-2.78,5.63-3.11,7.25-.94,11.65,1.23,15.21,8.24,5.84,11.48,13.2,22.18,19.87,33.24A27.57,27.57,0,0,1,461.58,188.23Zm-42.52-18.52h18.17c-3.22-5.81-6.22-11.21-9.42-17-2.89,5.32-5.59,10.28-8.27,15.26A9.94,9.94,0,0,0,419.06,169.71Z"/><path class="cls-2" d="M583.47,174.48c-.41-4.52.33-9.15-1.58-13.52a2.51,2.51,0,0,1,0-1.75c1.39-3.29.68-6.72.63-10.06-.08-6-.25-6,6.16-6,7.28,0,7.28,0,7.27,7.21,0,11.28-.11,22.56.07,33.84,0,3.16-1,4.37-4,4a10.45,10.45,0,0,0-3.11,0c-6.88,1.35-10.49-2.36-14.22-7.62-6.27-8.83-13.51-17-20.35-25.41-1.87,1-1.31,2.8-1,4,2.07,8.73-.33,17.66,1.36,26.4.34,1.74-.35,3.08-2.78,2.79a37.54,37.54,0,0,0-8-.1c-3.12.3-4.24-1.83-3.94-3.89,1.68-11.64.27-23.32.72-35,.27-7.07-1.18-6.17,6.43-6.33a37.92,37.92,0,0,0,6.51-.45c2.21-.44,4.52.95,6.18,3.14,6.88,9,13.94,17.93,20.92,26.9.62.79,1.11,1.69,1.66,2.53Z"/><path class="cls-2" d="M600.37,167.12c0-5.61-.12-11.13,3.83-15.91,4.74-5.74,11.39-6.84,18-8.11,7.67-1.48,15.25-.62,22.87.76,10.56,1.92,17.43,10.12,17.91,20.78.64,14.31-9.12,22.22-22.28,24.09-8.67,1.24-17.08,0-25.52-1.14C606.14,186.31,600.4,178.13,600.37,167.12Zm48.13-1.45c0-9.89-6-15.37-16.94-15.41-11.12,0-16.92,5.35-16.91,15.69s5.56,15.47,16.92,15.45C642.76,181.39,648.5,176.06,648.5,165.67Z"/><path class="cls-2" d="M726.22,187.57c-11,3.72-18-1.29-22.55-10.29-4.36-8.58-11.91-6.37-18.88-6.48-1.88,0-1.46,1.49-1.47,2.6,0,4-.06,8,0,12,0,2-.52,2.79-2.74,2.92-10.7.63-10.7.71-10.71-10,0-10.55.08-21.09-.06-31.64,0-2.65.54-3.62,3.41-3.53,12.59.36,25.23-.54,37.79.86,5.32.6,10.09,2.45,12.33,7.91a11.82,11.82,0,0,1-1.92,12.82,11.7,11.7,0,0,1-6.2,3.89c-3.76.94-2.26,2.54-.93,4.19,3.48,4.32,7.06,8.57,10.57,12.86C725.43,186.33,725.88,187.07,726.22,187.57Zm-30.58-24.86c3.15-.31,7,.51,10.78-.47,2.94-.76,4.67-2.51,4.41-5.63s-2.29-4-5-4.64c-6.74-1.48-13.53-.52-20.29-.8-1,0-2.22-.19-2.19,1.39.07,3.22-.65,6.83.59,9.53.81,1.75,4.62.42,7.08.6C692.31,162.79,693.65,162.71,695.64,162.71Z"/><path class="cls-2" d="M488.89,187.79c-3.94-.34-7.91.19-11.78-1.41-6.23-2.58-9.58-7.08-9.59-13.77,0-8.61.12-17.22-.09-25.83-.06-3,.89-3.68,3.74-3.66,9.08,0,9-.07,9.11,9.14.1,6.82-.59,13.65.49,20.44.87,5.5,3.23,7.72,8.72,7.8,5.2.08,10.4,0,15.59,0,5.75,0,6.59,1.4,4.4,7.29Z"/><path class="cls-2" d="M518.25,166.73c0-7.1.26-14.23-.15-21.31-.13-2.34,1-2.11,2.14-2.15,3.4-.12,6.81,0,10.21-.07,1.86,0,2.2,1,2.19,2.51,0,13.47,0,26.95,0,40.43,0,2.28-.93,3.73-3.63,2.49a8.72,8.72,0,0,0-2.59-.35c-2.73-.28-6.32,1.27-7.94-.71-1.24-1.51-.11-4.94-.09-7.51,0-4.44,0-8.89,0-13.33Z"/></svg>