<svg id="Capa_1" data-name="Capa 1" xmlns="http://www.w3.org/2000/svg" xmlns:xlink="http://www.w3.org/1999/xlink" viewBox="0 0 846 345"><defs><style>.cls-1{fill:none;}.cls-2{clip-path:url(#clip-path);}.cls-3{fill:#f04e44;}</style><clipPath id="clip-path"><polyline class="cls-1" points="116.58 41 116.58 296 729.42 296 729.42 41"/></clipPath></defs><g class="cls-2"><path class="cls-3" d="M277.53,142.15c2.23-1.59,4.57-3,7-4.5,1.79,1.83,3.44,3.62,5,5.51-2.33,1.25-4.59,2.67-6.76,4-1.62-1.69-3.38-3.38-5.24-5m-9.29-7.64a87.52,87.52,0,0,1,7.06-5.24c1.93,1.65,3.79,3.24,5.58,4.9-2.5,1.55-4.87,3.08-7.07,4.73C272.06,137.38,270.2,136,268.24,134.51Zm170-18-.44-.34c-56.86,2.3-110.17,20.08-146,42.19a69.78,69.78,0,0,0-5.11-6.8c32.19-19.88,77.12-36.44,115.35-41.44l-.51-.31c-40.94,4.13-81,16.57-109.46,32a46.65,46.65,0,0,0-4.13-6.08c24.92-14.34,57-25.9,87.6-31.51l-.44-.3c-35.74,5.4-68.06,15.38-90.37,28.05-1.62-1.79-3.38-3.48-5.3-5.24,2.33-1.42,4.76-2.77,7.3-4.12,1.11,1.15,2.19,2.3,3.21,3.48l1.25-1.18c-.71-1.18-1.45-2.3-2.27-3.45a243.48,243.48,0,0,1,58.83-20.22l-.48-.3c-18.12,3.21-42.22,8.72-60.64,17.55-15.15-18-45.91-30.23-90.64-38.91l-.4.27c40.43,9.16,70.08,22.92,88.3,40a75.55,75.55,0,0,0-7.51,4.33C255,106.45,217,90.59,167,83.22l-.44.24c44.15,8,81,23.94,105.88,43.44a46.34,46.34,0,0,0-6.52,5.92c-27.59-19.54-71.26-36-129.68-43.54l-.41.27c48.31,7.7,98.65,24.74,132.83,53.48a52.67,52.67,0,0,0-10.69,12l1.46,1.52A120.52,120.52,0,0,1,272,146c1.79,1.52,3.52,3.18,5.17,4.8-11.76,8-20.18,16.74-23.93,25.12l1.55,1.29c6.53-7.54,15.66-15.05,26.47-22.22,2,2.17,3.82,4.23,5.62,6.46C264.85,176,250.28,192,247,206.75l1.72,1.18c9.3-15.68,24.21-29.37,42.06-41.41a104.45,104.45,0,0,1,7.57,12.14l1.56-1a48.52,48.52,0,0,0-4.87-13.79c44.86-28.43,106-45.13,143.2-47.39Z"/></g><g class="cls-2"><path d="M299.57,256.85c-.94.37-3.78,1.79-10.92,1.79-15.31,0-23.19-11.19-23.19-25.89s7.88-25.9,22.92-25.9c6.6,0,10,1.42,11.19,1.9l-.5,8.38c-.88-.54-3.62-2.6-9.57-2.6-7.64,0-14.2,5.24-14.2,18.25S281.89,251,289.5,251c4.5,0,7.44-1.08,9.53-2.61Zm26.37-3.18a13.34,13.34,0,0,1-10.31,4.81c-6.56,0-11.19-4-11.19-10.89,0-10,8.86-12.61,17.95-12.61h3.45v-1.39c0-3.65-1.79-7-6.93-7a17,17,0,0,0-10.17,3.59l-.51-7.21a24.75,24.75,0,0,1,11.19-2.73c11.12,0,14.8,5.47,14.8,14v17.14a53.67,53.67,0,0,0,.48,6.53h-8.08a15.46,15.46,0,0,1-.51-4.2Zm154.4,0A13.38,13.38,0,0,1,470,258.48c-6.55,0-11.25-4-11.25-10.89,0-10,8.92-12.61,18-12.61h3.45v-1.39c0-3.65-1.8-7-6.93-7a17,17,0,0,0-10.18,3.59l-.51-7.21a24.64,24.64,0,0,1,11.19-2.73c11.16,0,14.74,5.47,14.74,14v17.14a42.29,42.29,0,0,0,.54,6.53h-8a15.62,15.62,0,0,1-.54-4.2Zm-84-49.83v47.7a43.29,43.29,0,0,0,.3,6.33h-8.42a43.93,43.93,0,0,1-.27-4.8h-.2c-.51,1-2.87,5.41-9.91,5.41-9.26,0-13.08-8.83-13.08-19.11,0-12.1,4.57-19.16,13.79-19.16,6,0,8.15,3.58,8.69,4.32h.17V203.81h8.93ZM640.1,220.75h7.61v3.65H640.1v24.47c0,3,.38,5.82,4.3,5.82a9.25,9.25,0,0,0,3.31-.61v3.79c-.44.23-1.59.54-4.29.54-6.43,0-7.75-4.19-7.75-8.35V224.43h-5.61v-3.65h5.65v-7.44l4.39-1.25ZM605.86,253.4c-1,1.26-3,5-10.08,5s-10.92-4.36-10.92-11c0-9.46,8-11.9,17.62-11.9h3.17v-3h0c0-5.11-1.82-8.35-8.07-8.35-5,0-8.56,3.51-9,3.88l-.67-4.49a17.53,17.53,0,0,1,10-3.28c10.38,0,12.13,7.54,12.13,11.42v17.89c0,2.77.21,5.54.44,8.28h-4.29l-.24-4.46Zm-47.94-12.67c0,13.72,9,13.89,10.65,13.89a13.5,13.5,0,0,0,8-3.08l.23,4.74a16.44,16.44,0,0,1-8.69,2.13c-14.6,0-15-15.32-15-19.07,0-12.68,4.8-19.07,13.08-19.07,9.16,0,13.15,7.27,13.15,20.46ZM343,226.93a55.39,55.39,0,0,0-.3-6.18h8.08c.06,2.26.23,2.9.23,5.14h.14c.71-1.59,2.43-5.68,9.5-5.68a7.34,7.34,0,0,1,1.52.2v8.28a10.35,10.35,0,0,0-2.54-.3c-3.68,0-7.7,2.26-7.7,9.19v20.25h-9Zm80.46,0a49,49,0,0,0-.3-6.18h8.41c.07,1.18.24,3.78.24,4.7h.13c.75-1.15,3.11-5.24,9.74-5.24,7.74,0,11.19,4.93,11.19,12.2v25.42h-9v-24c0-4.56-2.7-6.29-5.74-6.29s-5.75,1.63-5.75,6.29v24h-9Zm97.19,30.94H516.1v-54h4.53v23.09h19.81V203.84H545v54h-4.53v-27H520.63Zm103.58-54v54h-4.39v-54Zm-117.84,0v54h-9v-54Zm-92,54h-9V220.78h9Zm243.87-54v20.32h.07c1.05-1.32,3.31-3.89,9-3.89a10.71,10.71,0,0,1,10.82,10.86v26.74h-4.46V232.14c0-4.94-2.88-8.25-7.61-8.25s-7.78,3.18-7.78,8.25v25.73h-4.43v-54Zm-52.57,35.37h-3.51c-7.81,0-12.58,2.33-12.58,8.14,0,3.69,2.3,7.14,7.24,7.14,2,0,8.89-.82,8.89-10.92v-4.36Zm-125.48.54h-3.28c-4.26,0-9.71,1.28-9.71,7a5.36,5.36,0,0,0,5.65,5.68c4.8,0,7.3-3.92,7.3-8.65Zm-154.4,0h-3.28c-4.26,0-9.73,1.28-9.73,7a5.37,5.37,0,0,0,5.71,5.68c4.77,0,7.3-3.92,7.3-8.65Zm54.53,12.17c5.28,0,7.1-5.72,7.1-12.71,0-7.21-2.06-12.45-6.93-12.45s-6.76,4.81-6.76,12.21c0,8.65,1.39,12.95,6.59,12.95Zm194.19-15.11c0-8-3.25-12.65-8.25-12.65-5.68,0-8.32,5.34-8.32,12.65Zm-160-23.06h-9.23V205h9.23Z"/></g></svg>