<svg id="Capa_1" data-name="Capa 1" xmlns="http://www.w3.org/2000/svg" viewBox="0 0 846 345"><defs><style>.cls-1{fill:#003671;}.cls-1,.cls-2{fill-rule:evenodd;}.cls-2{fill:#e73137;}</style></defs><path class="cls-1" d="M403.35,185.72H360s-14.94-.1-14.94,14.42v26.13S344.34,241,359.89,241h43.35V226.27H364.46s-4.46.21-4.46-4.87V204.49a4.17,4.17,0,0,1,4.56-4.35h38.79V185.72Z"/><path class="cls-1" d="M468.27,185.72H421.81S407,185.62,407,200.14v26.13S406.15,241,421.81,241h46.35V226.27H426.27s-4.46.21-4.46-4.87V204.49a4.17,4.17,0,0,1,4.56-4.35h41.9V185.72Z"/><polygon class="cls-1" points="431.97 219.63 468.16 219.63 468.16 207.92 431.97 207.92 431.97 219.63 431.97 219.63"/><path class="cls-1" d="M609.31,185.72H562.85S548,185.62,548,200.14v26.13S547.19,241,562.85,241h46.46V226.27H567.42s-4.57.21-4.57-4.87V204.49a4.25,4.25,0,0,1,4.57-4.35h41.89V185.72Z"/><polygon class="cls-1" points="573.12 219.63 609.21 219.63 609.21 207.92 573.12 207.92 573.12 219.63 573.12 219.63"/><path class="cls-1" d="M528.52,185.72H472.94V241h14.72V200.35h13.07V241h14.73V200.35h13.06V241h14.63V200s.83-14.31-14.63-14.31Z"/><polygon class="cls-1" points="683.99 185.72 668.33 185.72 668.33 193.6 648.62 204.7 628.92 193.6 628.92 185.72 613.25 185.72 613.25 200.03 634 213.31 613.25 226.69 613.25 241 628.92 241 628.92 233.12 648.62 222.02 668.33 233.12 668.33 241 683.99 241 683.99 226.69 663.24 213.31 683.99 200.03 683.99 185.72 683.99 185.72"/><polygon class="cls-2" points="212 240.79 327.33 104 277.24 104 162.01 240.79 212 240.79 212 240.79"/><polygon class="cls-1" points="286.78 240.79 402 104 352.01 104 236.79 240.79 286.78 240.79 286.78 240.79"/></svg>