<svg id="Capa_1" data-name="Capa 1" xmlns="http://www.w3.org/2000/svg" viewBox="0 0 846 345"><defs><style>.cls-1{fill:#e1261c;}.cls-2{fill:#021d49;}</style></defs><path class="cls-1" d="M619.52,85.7,692.38,201h28.26L654.1,98a31,31,0,0,0-26-14.53h-.5a30.43,30.43,0,0,0-26,14.13L532.44,200.55H647.68Z"/><path class="cls-2" d="M391.53,228.71h7.32v25.55h13.23v6.42H391.53Zm53.22,25.95c5.51,0,10.52-4.51,10.52-10s-4.51-10.52-10-10.52-10.52,4.51-10.52,10h0a9,9,0,0,0,9.11,10c-.1.5.41.5.91.5m0-26.85a16.86,16.86,0,0,1-1.81,33.67c-9.12-.9-15.93-8.22-15.93-16.84a16.55,16.55,0,0,1,15.93-16.83h1.81m64.64,30.46a28.37,28.37,0,0,1-13.63,3.21A16.86,16.86,0,0,1,494,227.81h1.81c4.51-.51,9.52,1.4,13.22,4.1l-5,5.52a10.58,10.58,0,0,0-7.71-3.21,10,10,0,1,0,0,20h0a18.44,18.44,0,0,0,6.81-1.4v-5h-5.91v-6.41h12.73Zm18.33-29.56H535v31.87h-7.32Zm42.7,7.71a7.57,7.57,0,0,0-5.52-2.3c-1.8,0-5,.9-5,3.21,0,5.91,15,2.3,15,13.22,0,7.32-5.92,10.53-12.73,10.53-3.61.5-7.32-.9-10.52-3.61l5-5.51a9,9,0,0,0,6.41,2.7c2.31,0,5-.9,5-3.2,0-5.92-15.53-2.71-15.53-13.23,0-6.82,6.41-10.52,12.73-10.52a15.44,15.44,0,0,1,10,3.2Zm28.86-1.8h-9.52v-6.41h26v6.41h-9.52v25.46h-7.31Zm32.77-5.91h7.31v31.87h-7.31Zm47.9,7.91c-1.4-1.8-3.61-2.7-6.41-2.7-5.51.5-10,5.51-9.52,10.92.5,5,4.11,9.12,9.12,9.52a9.76,9.76,0,0,0,6.81-3.2l5.91,4.51A14.83,14.83,0,0,1,674,261.18a16.86,16.86,0,1,1-1.8-33.67H674A14.27,14.27,0,0,1,685,232Zm38.69-.5a7.33,7.33,0,0,0-5-2.3c-1.8,0-5,.9-5,3.21,0,5.91,15,2.3,15,13.22,0,7.32-5.92,10.53-12.73,10.53A15.61,15.61,0,0,1,700,256.67l5-5.51a8,8,0,0,0,6.41,3.2c2.3,0,5-.9,5-3.2,0-5.92-15.53-2.71-15.53-13.23,0-6.82,5.91-10.52,12.32-10.52a15.41,15.41,0,0,1,10,3.2ZM250.83,199.75H166.55a43.47,43.47,0,0,1-44.2-42.8V128.69a43.34,43.34,0,0,1,44.2-42.79h84.68v23.65H166.55c-10.92,0-19.54,8.22-19.54,19.14V157c0,10.93,9.12,19.14,19.54,19.14h84.28ZM495,176c-1.8,3.21-5.91,3.61-9.12,1.81A7.41,7.41,0,0,1,484,176L427.51,85.3H399.25l64.24,102.92a30.41,30.41,0,0,0,25.95,14.53h.5a30.41,30.41,0,0,0,26-14.13l66-103.42H553.28Zm-187.7-66.44h54.62a10.08,10.08,0,0,1,10.92,9.52v2.31a9.73,9.73,0,0,1-9.12,10.52H287.11v-3.21c.6-10.92,9.22-19.64,20.14-19.14m54.22,45.5a33.65,33.65,0,0,0,35.07-32.37v-3.21h0A33.61,33.61,0,0,0,362.87,85.8h-56c-23.65-.5-43.29,18.64-43.69,42.79v27.76a44.08,44.08,0,0,0,44.19,43.3h85.18V176H307.35a19.37,19.37,0,0,1-19.54-19.54v-.9Z"/></svg>