<svg id="Capa_1" data-name="Capa 1" xmlns="http://www.w3.org/2000/svg" viewBox="0 0 846 345"><defs><style>.cls-1{fill:#005cb9;}.cls-2{fill:#383336;}</style></defs><path class="cls-1" d="M269.64,100.74l10.6,38.13H258.29Zm-19.3,64.81-9.65,31.6h56.39L288,165.55Zm147.12-87.7H289.22v34h34.16v85.34h55c-3.4-2.09-26.67-20.63-26.67-55.16C351.67,113.32,369.07,85.23,397.46,77.85Zm18.73,88.74c12.77,0,23-10.6,23-24s-9.65-25.36-22.52-25.36-23.18,12-23.18,25.36S403,166.59,416.19,166.59Zm113.53-13.72-22-75h-56.2v119.3h35.1V122.41H487l21.76,74.74h56.77V77.85H530v75ZM196.13,197.15l10.12-33.5H168.6V153.53h40.68l9.65-32.07H168.6v-9.74h53.17l10.22-34H128v119.3h68.11Z"/><path class="cls-2" d="M231,225.43h9c2.75,0,7.19.38,5.59,7.95-1.42,6.62-4.17,9.65-9.84,9.65H230.1l-3.22,15.33H224Zm-.29,15.14h5.4c3,0,5.29-1.42,6.43-6.62,1.23-5.58-1.14-6.06-3.79-6.06h-5.39Z"/><path class="cls-2" d="M245,249.37l1.14-5.49c.66-2.93,2-9,9.84-9s6.62,6.06,6.05,9l-1.13,5.49c-1.23,6-4.07,9.46-9.94,9.46s-7.19-3.5-6-9.46m11.64,4.26a37.77,37.77,0,0,0,2-6.72c1.42-6.81,1.42-9.75-3.13-9.75s-5.86,2.94-7.28,9.75c-.28,1.42-1.14,5.58-.85,6.72.09.56.19,3,4,3A5.59,5.59,0,0,0,256.68,253.63Z"/><polygon class="cls-2" points="266.24 235.37 269.17 235.37 270.02 255.52 270.11 255.52 279.29 235.37 282.7 235.37 283.55 255.52 283.55 255.52 293.01 235.37 295.75 235.37 284.5 258.36 281.09 258.36 280.24 238.68 280.14 238.68 271.15 258.36 267.75 258.36 266.24 235.37"/><path class="cls-2" d="M298.4,247.48l-.38,1.79c-.66,3.22-.75,7.48,3.6,7.48a6,6,0,0,0,6.15-5.3h2.84c-1.52,5.58-4.92,7.47-9.56,7.47-4,0-7.57-1.61-6.15-8.61l1.23-5.67c1.42-6.62,4.83-9.75,10-9.75,7.95,0,6.72,5.68,5.3,12.59Zm10.88-2.27c1-5.11,1-8.14-3.5-8.14s-5.86,3-6.91,8.14Z"/><path class="cls-2" d="M321.39,238.49h0a9.38,9.38,0,0,1,7.19-3.6l-.57,2.75a7,7,0,0,0-7.66,5.86l-3.12,14.86h-2.75l4.92-23h2.75Z"/><path class="cls-2" d="M326.69,258.36l4.92-23h2.74l-4.92,23Zm6-29.43.76-3.5h3.4l-.75,3.5Z"/><path class="cls-2" d="M338.42,258.36h-2.74l4.92-23h2.74l-.57,2.83h.1c1.7-1.89,3.78-3.31,6.24-3.31,5.68,0,5.39,4.26,4.73,7.29l-3.4,16.27h-2.75l3.41-16.08c.57-2.65.09-5.21-3.12-5.21-2.46,0-5.3,1.71-6.44,6.82Z"/><path class="cls-2" d="M373.61,235.27h2.65c-.56,2.18-.85,3.31-1.13,4.54L371,259.21c-1.05,5.11-3.32,8-9.84,8-5.77,0-6.06-4.07-5.4-6.34h2.75c-.76,2.65.85,4.16,3.4,4.16,5.3,0,5.58-2.84,7.1-9.74h-.1a7.77,7.77,0,0,1-6.15,2.74c-6.62,0-5.86-5.67-4.73-10.78,1.14-5.3,1.23-5.4,2.37-7.86a8.63,8.63,0,0,1,7.47-4.54c2.37,0,4.36,1.14,4.92,3.22l.1.09Zm-12.48,11.07c-1,4.83-2.09,9.56,2.93,9.56a6,6,0,0,0,4.73-2.56c1-1.8,1.51-2.84,2.93-9.55,1-4.83-1.13-6.63-3.69-6.63C363.21,237.07,361.88,242.93,361.13,246.34Z"/><path class="cls-2" d="M387.05,258.36l7-32.93h9.18c5.1,0,7.38,2.08,6.15,7.85-.86,4-2.09,6.72-6.44,7.86v.09c4.17,1,4.64,3.79,3.79,8-1.23,6-4.73,9.18-10.32,9.18Zm3.4-2.46h4.64c4.82,0,7.47-1.61,8.51-6.44.67-2.93.57-6.9-4.44-6.9h-6Zm9-15.8c4.16,0,6.15-2.84,6.91-6.63,1.13-5.48-1.8-5.58-4.16-5.58h-5.78l-2.55,12.21Z"/><path class="cls-2" d="M428.86,235.37l-4.91,23h-2.37l.57-2.56h-.1c-2,2-3.88,3-6.43,3-4.73,0-5.3-3.5-4.54-7.19l3.5-16.27h2.74l-3.4,15.8c-.1.66-1.33,5.48,2.65,5.48,3.69,0,5.77-3.5,6.05-5.11L426,235.27h2.83Z"/><path class="cls-2" d="M435.39,258.83c-5,0-6.43-2.46-5.3-7.29h2.75c-.66,3.13-.38,5.21,3.12,5.21,2.65,0,4.26-1.52,4.83-4.07,1.32-6.06-9.37-4.45-7.76-12.11.94-4.26,4.16-5.77,8.13-5.77,4.54,0,5.4,3.12,4.64,6.62h-2.74c.47-2.93,0-4.45-3-4.45a4.35,4.35,0,0,0-4.26,3.32c-1.23,5.77,9.46,4.16,7.85,11.92-.94,4.44-4,6.62-8.23,6.62"/><path class="cls-2" d="M447.31,258.36l4.92-23H455l-4.92,23Zm6-29.43.76-3.5h3.41l-.76,3.5Z"/><path class="cls-2" d="M459,258.36H456.3l4.92-23H464l-.56,2.83h.09c1.7-1.89,3.78-3.31,6.24-3.31,5.68,0,5.4,4.26,4.74,7.29l-3.41,16.27h-2.74l3.4-16.08c.57-2.65.1-5.21-3.12-5.21-2.46,0-5.3,1.71-6.43,6.82Z"/><path class="cls-2" d="M481.56,247.48l-.38,1.79c-.66,3.22-.75,7.48,3.6,7.48a6,6,0,0,0,6.15-5.3h2.83c-1.51,5.58-4.91,7.47-9.55,7.47-4,0-7.57-1.61-6.15-8.61l1.23-5.67c1.42-6.62,4.82-9.75,10-9.75,7.95,0,6.72,5.68,5.3,12.59Zm10.88-2.27c1-5.11.95-8.14-3.5-8.14s-5.87,3-6.91,8.14Z"/><path class="cls-2" d="M503.13,258.83c-4.92,0-6.43-2.46-5.3-7.29h2.75c-.67,3.13-.38,5.21,3.12,5.21,2.65,0,4.26-1.52,4.82-4.07,1.33-6.06-9.36-4.45-7.75-12.11.94-4.26,4.16-5.77,8.13-5.77,4.54,0,5.39,3.12,4.64,6.62h-2.65c.47-2.93,0-4.45-3-4.45a4.36,4.36,0,0,0-4.26,3.32c-1.23,5.77,9.46,4.16,7.86,11.92-1,4.44-4,6.62-8.33,6.62"/><path class="cls-2" d="M520.54,258.83c-5,0-6.43-2.46-5.3-7.29H518c-.66,3.13-.37,5.21,3.13,5.21,2.65,0,4.25-1.52,4.82-4.07,1.33-6.06-9.36-4.45-7.76-12.11,1-4.26,4.17-5.77,8.14-5.77,4.54,0,5.39,3.12,4.64,6.62H528.2c.47-2.93,0-4.45-3-4.45a4.35,4.35,0,0,0-4.25,3.32c-1.23,5.77,9.46,4.16,7.85,11.92-.95,4.44-3.88,6.62-8.23,6.62"/><polygon class="cls-2" points="560.84 225.43 564.82 225.43 565.29 254.29 565.38 254.29 578.53 225.43 581.37 225.43 566.23 258.36 562.45 258.36 561.98 229.12 561.88 229.12 548.92 258.36 545.23 258.36 544.28 225.43 547.41 225.43 547.88 254.57 547.98 254.57 560.84 225.43"/><path class="cls-2" d="M577.78,249.37l1.13-5.49c.66-2.93,2-9,9.84-9s6.62,6.06,6,9l-1.13,5.49c-1.23,6-4.07,9.46-9.93,9.46s-7.19-3.5-6-9.46m11.73,4.26a37,37,0,0,0,2-6.72c1.42-6.81,1.42-9.75-3.12-9.75s-5.86,2.94-7.28,9.75c-.29,1.42-1.14,5.58-.85,6.72.09.56.18,3,4,3A5.75,5.75,0,0,0,589.51,253.63Z"/><path class="cls-2" d="M604.36,238.49h0a9.38,9.38,0,0,1,7.19-3.6l-.57,2.75a7,7,0,0,0-7.66,5.86l-3.12,14.86h-2.75l4.92-23h2.75Z"/><polygon class="cls-2" points="609.94 258.36 616.94 225.43 619.69 225.43 612.69 258.36 609.94 258.36"/><path class="cls-2" d="M631.8,255.42h-.1c-1.89,2.18-3.88,3.31-6.53,3.31-6.62,0-5.58-6.62-4.44-12,.94-4.45,2.55-11.92,9.65-11.92a5.62,5.62,0,0,1,5,2.74h.1l2.55-12.2h2.74l-6,28.38a26.51,26.51,0,0,0-.66,4.54h-2.75Zm1.23-6.53.85-4.06c.28-1.33,1.61-7.76-3.5-7.76-4.92,0-5.87,4.45-7,9.84-1.8,8.61,0,9.74,2.93,9.74C629,256.65,631.89,254.57,633,248.89Z"/><polygon class="cls-2" points="641.82 235.37 644.76 235.37 645.61 255.52 645.7 255.52 654.88 235.37 658.29 235.37 659.14 255.52 659.14 255.52 668.6 235.37 671.34 235.37 660.08 258.36 656.68 258.36 655.83 238.68 655.73 238.68 646.74 258.36 643.34 258.36 641.82 235.37"/><path class="cls-2" d="M669.92,258.36l4.92-23h2.75l-4.92,23Zm5.87-29.43.76-3.5H680l-.76,3.5Z"/><path class="cls-2" d="M691.59,255.42h-.1c-1.89,2.18-3.88,3.31-6.52,3.31-6.63,0-5.59-6.62-4.45-12,.94-4.45,2.55-11.92,9.65-11.92a5.62,5.62,0,0,1,5,2.74h.1l2.55-12.2h2.75l-6.06,28.38a26.51,26.51,0,0,0-.66,4.54h-2.65Zm1.23-6.53.85-4.06c.28-1.33,1.61-7.76-3.5-7.76-4.92,0-5.87,4.45-7,9.84-1.8,8.61,0,9.74,2.93,9.74C688.75,256.65,691.68,254.57,692.82,248.89Z"/><path class="cls-2" d="M703.89,247.48l-.38,1.79c-.66,3.22-.76,7.48,3.59,7.48a6,6,0,0,0,6.15-5.3h2.84c-1.51,5.58-4.92,7.47-9.55,7.47-4,0-7.57-1.61-6.15-8.61l1.23-5.67c1.42-6.62,4.82-9.75,10-9.75,8,0,6.72,5.68,5.3,12.59Zm10.78-2.27c1-5.11,1-8.14-3.5-8.14s-5.86,3-6.91,8.14Z"/></svg>