<svg id="Capa_1" data-name="Capa 1" xmlns="http://www.w3.org/2000/svg" viewBox="0 0 846 345"><defs><style>.cls-1{fill:#e1251b;}</style></defs><polygon class="cls-1" points="121.65 109.27 121.65 149.55 146 149.55 146 109.27 174.83 109.27 174.88 207.78 146 207.98 146 164.55 121.65 164.6 121.65 207.78 92.37 207.98 92.37 109.07 121.65 109.27"/><path class="cls-1" d="M342.24,142.83c2.92,4.2,4.64,8.2,5.13,15.63.28,9.59,0,49.32,0,49.32H319.32l0-53.1a7.06,7.06,0,0,0-3.55-5.13c-5.93-.79-9.87,1.18-13.82,4.73l-1.58,2.37v51.28H273.54v-71H299.6l1.58,5.53C311.44,133.36,332.37,130.59,342.24,142.83Z"/><path class="cls-1" d="M462.27,136.91l13.43,32.38,14.21-32.58h38.7l13,36.92,10.66-36.72h22.5l12.11,37.31,11.58-37.31,9.48-.2-18.18,71.07h-20.4l-12-42.05-12.72,42.05-20.84.2-23.49-70.61L465,225c-5.14,5.53-9.74,9.15-19,10.66-5.93,1.18-10.27-1.19-14.22-4.74a14.29,14.29,0,0,1-3.95-14.21c2-3.56,4.74-7.5,9.08-7.9a11.72,11.72,0,0,1,11.71,7.11c.07,5.06.66,7,.14,10.26,6.71-.39,8.68-8.68,11.84-13.42l-.39-5.92-27.79-70.09Z"/><path class="cls-1" d="M427.53,148.76c-11.46-17-37.12-18.17-54.1-10.27-14.61,9.08-18.95,25.27-17,41.46,2,14,12.23,26.45,25.66,29.22,16.19,3.55,33.56,1.18,45.41-9.88,2.76-3.15,5.13-7.55,4.74-11.49-4.94-.05-7.41.08-11.46,0-1.58,7.5-8.68,13.08-15.4,14.26-6.71.79-14.6-.2-17.37-4.35-3.16-2.27-3.16-8.93-3.16-20.2h49.75C435,167.24,432.66,156.65,427.53,148.76Zm-42.25,17.76c.39-7.5-2.86-20.43,6.32-24.08,5.52-.79,11.5.79,12.29,6.71l.08,17.18C396.73,166.82,392.45,166.65,385.28,166.52Z"/><path class="cls-1" d="M682.69,148.76c-11.45-17-37.11-18.17-54.09-10.27-14.61,9.08-19,25.27-17,41.46,2,14,12.24,26.45,25.67,29.22,16.19,3.55,33.56,1.18,45.4-9.88,2.77-3.15,5.14-7.55,4.75-11.49-4.94-.05-7.41.08-11.46,0-1.58,7.5-8.69,13.08-15.4,14.26-6.71.79-14.61-.2-17.37-4.35-3.16-2.27-3.16-8.93-3.16-20.2H689.8C690.2,167.24,687.83,156.65,682.69,148.76Zm-42.24,17.76c.39-7.5-2.86-20.43,6.31-24.08,5.53-.79,11.5.79,12.29,6.71l.08,17.18C651.9,166.82,647.62,166.65,640.45,166.52Z"/><rect class="cls-1" x="697.39" y="109.07" width="26.66" height="98.71"/><rect class="cls-1" x="734.98" y="109.07" width="26.65" height="98.71"/><path class="cls-1" d="M250.38,141.64c-6.87-5.47-16.57-7.83-26.15-7.83-10.27,0-20.09,2.73-27.14,8.93-8,7.06-12.64,18.32-12.64,29.67,0,12.43,4.94,24.6,14.35,31.65,6.72,5.06,16.27,7,25.43,7,10.74,0,21.34-3.3,28.5-10,7.48-7,11.29-17.7,11.29-28.6C264,160.38,259.27,148.72,250.38,141.64Zm-17,51.46a9,9,0,1,1-18,0V151.4a9,9,0,1,1,18,0Z"/></svg>