<svg id="Capa_1" data-name="Capa 1" xmlns="http://www.w3.org/2000/svg" viewBox="0 0 846 345"><defs><style>.cls-1{fill:#00b5ef;}.cls-2{fill:#007bb6;}.cls-3{fill:#003e6a;}.cls-4{fill:#231f20;}</style></defs><polygon class="cls-1" points="254.77 139.79 270.75 130.55 198.12 88.62 125.48 130.55 141.46 139.79 198.12 107.08 254.77 139.79"/><polygon class="cls-1" points="198.12 154.04 214.1 163.26 198.12 172.5 182.1 163.26 198.12 154.04"/><polygon class="cls-2" points="254.77 139.79 254.77 205.21 214.1 228.68 214.1 163.26 198.12 172.5 198.12 237.91 198.12 237.91 198.12 256.38 270.75 214.43 270.75 130.55 254.77 139.79"/><polygon class="cls-3" points="141.46 139.79 125.48 130.55 125.48 214.43 198.12 256.38 198.12 237.91 141.46 205.21 141.46 139.79"/><path class="cls-4" d="M337.57,214.45h-16v-70h16Z"/><path class="cls-4" d="M354.17,162a81.44,81.44,0,0,1,26.8-4.91c14.6,0,24,5.44,24,22.15v35.23H389.78V180.23c0-6.3-3.39-9.53-9.94-9.53a36.11,36.11,0,0,0-10.57,1.64v42.17h-15.1Z"/><path class="cls-4" d="M419.93,158.34V144.49H435v13.85h16v12.57H435v22.53c0,6.41,3,8.42,7.55,8.42a19.14,19.14,0,0,0,10.33-3.14v13.83a30.36,30.36,0,0,1-14.48,3.15c-9.68,0-18.48-4.66-18.48-18.23Z"/><path class="cls-4" d="M477,190.54v.25c1.14,7.93,8.94,12,16.49,12a34.78,34.78,0,0,0,18.75-5v12.8c-5.17,3.65-12.71,5.16-20.26,5.16-18.25,0-29.7-11.2-29.7-28.68,0-18.49,11.7-29.93,27.43-29.93,17.49,0,24.28,11.58,24.28,26.42v7.05Zm22.9-9.06c-.13-6.93-3.39-11.95-10.56-11.95-6.54,0-10.89,4.66-12.25,11.95Z"/><path class="cls-4" d="M562.84,212.05a25.32,25.32,0,0,1-10.32,1.89c-17,0-28.8-9.81-28.8-28.19,0-17.86,11.95-28.68,31.58-28.68a61.13,61.13,0,0,1,22.76,4.29v52.2c0,19.25-15.47,24.79-28.18,24.79a44.61,44.61,0,0,1-19.25-4.15V220.11c6.81,3.9,12.33,5.53,19.25,5.53,7.3,0,13-3.9,13-12.46Zm0-40.64a26.44,26.44,0,0,0-7.54-1.13c-10.07,0-16.23,5.16-16.23,15.47,0,9.7,6,15.48,15.22,15.48a25.53,25.53,0,0,0,8.55-1.63Z"/><path class="cls-4" d="M604.48,190.54v.25c1.15,7.93,8.94,12,16.49,12a34.76,34.76,0,0,0,18.75-5v12.8c-5.17,3.65-12.71,5.16-20.26,5.16-18.24,0-29.7-11.2-29.7-28.68,0-18.49,11.7-29.93,27.43-29.93,17.5,0,24.29,11.58,24.29,26.42v7.05Zm22.9-9.06c-.12-6.93-3.39-11.95-10.56-11.95-6.54,0-10.88,4.66-12.24,11.95Z"/><path class="cls-4" d="M669.41,214.45h-15.1V162.61a49,49,0,0,1,22.39-5.16A40.56,40.56,0,0,1,688.4,159v14.6a29.72,29.72,0,0,0-11.32-1.89,25.29,25.29,0,0,0-7.67,1.25Z"/><path class="cls-4" d="M709.83,144.16a10.6,10.6,0,1,1-10.5,10.69v-.09a10.29,10.29,0,0,1,10-10.6Zm0,19.92a9.32,9.32,0,1,0-9.11-9.52,1.27,1.27,0,0,0,0,.2,8.89,8.89,0,0,0,8.44,9.31Zm-1.8-3.35h-1.9v-12a19.44,19.44,0,0,1,3-.29c3.1,0,4.92,1.37,4.92,4.09a3.71,3.71,0,0,1-2.41,3.51l3.66,4.73h-2.28l-3.28-4.31H708Zm0-5.93h1.36c1.73,0,2.73-.74,2.73-2.31s-.93-2.32-2.9-2.32a11.41,11.41,0,0,0-1.17,0Z"/></svg>