<svg id="Capa_1" data-name="Capa 1" xmlns="http://www.w3.org/2000/svg" viewBox="0 0 846 345"><defs><style>.cls-1{fill:#dd1c2d;}.cls-2{fill:#f5be1e;}.cls-3{fill:#0d0d0d;}</style></defs><path class="cls-1" d="M422.74,291.41H307.4c-23.94,0-37.81-13.77-37.81-37.54q0-81.51,0-163c0-22.87,14-37.17,36.73-37.2q116.51-.14,233,0c22.93,0,37,14.1,37,36.89q.12,82.28,0,164.55c0,22.21-14.36,36.3-36.75,36.32Q481.18,291.48,422.74,291.41ZM423,62.09q-57.68,0-115.33,0c-19.48,0-29.82,10.44-29.83,30q0,80.35,0,160.7c0,20,10.17,30.32,30.25,30.33q114.95.07,229.9,0c20,0,30.18-10.32,30.19-30.39q0-80.36,0-160.7c0-19.6-10.27-29.9-29.85-29.91Q480.64,62,423,62.09Z"/><path class="cls-1" d="M374.92,183.9c7.46-9.46,14.92-18.58,21.95-28,3.09-4.16,4.93-4,7.82.08,1.27,1.77,2.89,6.81,5.56,3.76,3-3.42,10.76-7.28,5.61-12.93-6.35-7-3.6-11.24,1.23-16.65C421.35,125.37,425,120,428.94,115c3.24-4.1,3.44-8.13-.8-11.4-4-3.09-7.71-1.68-10.68,2-4.46,5.62-9.08,11.13-13.28,16.95-2.47,3.43-4.12,3.76-6.72.19-4.07-5.6-8.48-10.94-12.73-16.4-3.26-4.18-7.14-6.25-11.79-2.41-4.29,3.56-3.18,7.55-.07,11.46,4.95,6.22,9.57,12.72,14.76,18.72,3.19,3.68,2.87,6.29-.08,9.91-6.63,8.16-12.72,16.74-19.22,25-8.42,10.71-19.12,16.48-33.22,15.94-13.57-.51-27.18-.27-40.77,0-4.76.09-6.76-.94-6.7-6.32.28-26.15.15-52.31.09-78.47,0-3.4.15-5.86,4.76-5.86,59.21.11,118.42.08,179.09.08-8.69,11-16.64,21.14-24.6,31.23-1.71,2.17-2.93,1-4.18-.58-1.86-2.39-3.81-4.7-6.07-7.48a72.19,72.19,0,0,1-5.06,6.45c-3.75,3.78-4.23,7.41,0,11.06,4,3.51,3.2,6.63,0,10.36-4.83,5.63-9.14,11.72-13.79,17.52-3.41,4.26-5.38,8.66-.11,12.6s9,.44,12.17-3.73c3.91-5.08,8.18-9.91,11.76-15.2,2.86-4.24,4.54-3.28,7.05.2,4,5.61,8.42,11,12.74,16.4,3.09,3.88,6.89,5.69,11.26,2.19s3.6-7.41.42-11.41c-5.11-6.42-10-13-15.19-19.37-2.45-3-3.08-5.2-.33-8.59,7.1-8.76,13.54-18,20.63-26.82,8-9.89,18.25-15.26,31.41-14.92,14.35.36,28.72.21,43.08,0,4.29-.06,5.86,1.26,5.84,5.67-.15,26.41-.11,52.83,0,79.24,0,3.55-.51,5.74-5,5.73q-88.85-.22-177.7-.22C375.71,184.75,375.54,184.46,374.92,183.9Zm-4.68-43.1A37.55,37.55,0,1,0,295.16,139c-.58,20.05,16.15,37.66,36.37,38.3A37.55,37.55,0,0,0,370.24,140.8Zm105.52-1.56c-.17,20.88,16.56,38,37.2,38.09s38.1-17.15,38-37.53a38.08,38.08,0,0,0-37.05-37.7A37.56,37.56,0,0,0,475.76,139.24Z"/><path class="cls-2" d="M423.3,192q63.46,0,126.94.08c2.51,0,6.16-1.74,7.37,1.95,1,3.17-1.09,6-3.11,8.3-4.06,4.71-9.54,5.42-15.39,5.4q-46.16-.11-92.32,0-70,0-140,0c-6.46,0-12.27-1-16.35-6.58-1.7-2.31-3.36-5-1.94-7.76,1.27-2.49,4.17-1.35,6.34-1.36Q359.06,192,423.3,192Z"/><path class="cls-2" d="M423,86.86q-63.84,0-127.67-.06c-2.35,0-5.59,1.44-6.87-1.63-1.18-2.85.7-5.5,2.48-7.67,4.12-5,9.76-5.94,15.93-5.93q65,.14,130,.05,51.54,0,103.06,0c6.49,0,12.27,1.19,16,7.12,1.22,2,2.66,4.09,1.66,6.44-1.2,2.81-4,1.65-6.13,1.65Q487.21,86.91,423,86.86Z"/><path class="cls-3" d="M407.54,245.67c0-7.95,0-15.9,0-23.85,0-2.5-.57-5.4,3.54-5.29,11,.3,22.09-1.05,32.94,1.66,11.55,2.89,17.37,10.16,18.84,23.18,1.55,13.8-3.13,24.36-13.38,29.4-12.59,6.19-26.16,3.69-39.39,4.07-3.13.08-2.52-2.63-2.53-4.56C407.52,262.08,407.54,253.87,407.54,245.67Zm15.25,0c0,4.59,0,9.19,0,13.78,0,2.28.57,3.62,3.3,4.1,10,1.76,19.33-4.19,20.67-13.52,1.84-12.78-3.64-20.61-15.19-21.93-5.85-.67-10.12-.07-8.87,7.64C423.22,239,422.78,242.34,422.79,245.65Z"/><path class="cls-3" d="M355.92,245.89c0-8.19.16-16.39-.07-24.58-.1-3.64,1-4.93,4.75-4.85,10.5.21,21,.25,31.49,0,4.38-.11,5,1.84,5,5.54-.05,3.5-.23,6-4.81,5.67s-9.23.17-13.82-.14-7.25.16-7.29,6.24c-.05,6.63,3.47,6,7.66,5.88,3.58-.1,7.19.22,10.75-.08,4.48-.38,6.33.84,6.29,5.84,0,4.79-2,5.59-6,5.32-3.31-.23-6.71.35-10-.13-7.09-1.05-9.38,1.72-8.64,8.67.38,3.52,1.1,5,4.87,4.75,5.1-.3,10.24.12,15.35-.13,4.17-.21,6.49.27,6.53,5.57s-2.2,5.66-6.4,5.55c-10-.24-20-.38-29.95.05-5,.22-6-1.57-5.81-6.11C356.18,261.26,355.92,253.57,355.92,245.89Z"/><path class="cls-3" d="M501.16,261.09a37.52,37.52,0,0,0,19.08,3c3.11-.3,5.59-1.73,6-4.9.4-2.87-1.6-4.88-4.1-5.88-4-1.62-8.26-2.76-12.3-4.36-8.14-3.23-11.27-8.13-11-16.5.28-8.06,4.89-12.53,12.12-14.93s14.59-1.94,22.05-1.35c5.78.46,6.12,3.31,5.73,8.17-.53,6.62-4.33,3.73-7.43,3.25-4.34-.68-8.68-1-12.94.35-2.08.67-3.6,2.08-3.65,4.42a4.32,4.32,0,0,0,2.9,4.17c4.06,1.56,8.24,2.77,12.33,4.26,8.85,3.22,12.38,8,12.24,16.41-.14,8.58-4.33,14.06-12.91,17-5.72,1.94-11.61,1.81-17.5,1.46C498.83,274.9,498.84,274.85,501.16,261.09Z"/><path class="cls-3" d="M347.65,262.08c2.24,12.07,1.82,12.68-10,13.55a50.47,50.47,0,0,1-16.79-1.06c-15.55-4.1-23.08-14.68-22.23-31.29.77-14.82,10.17-24.84,25.45-27.09a49.3,49.3,0,0,1,13.78-.11c11.67,1.55,12,1.89,9.56,14.32-10.44-3.59-21-6.71-29.45,3.82-4.77,5.95-5,16.33-.51,22.36C325.7,267.6,336.81,264.5,347.65,262.08Z"/><path class="cls-3" d="M488.57,245.75c0,8.2-.28,16.41.09,24.59.32,7.11-4.73,4.45-7.86,4.55-3.28.1-7.89,2.11-7.73-4.8q.54-24.19,0-48.41c-.18-7.47,4.87-4.79,8.32-5.08,3.75-.32,7.76-1.14,7.31,5.34C488.16,229.84,488.57,237.81,488.57,245.75Z"/><path class="cls-1" d="M311.38,139.31c.24-13.67,8.65-22.27,21.67-22.14a21.93,21.93,0,0,1,22.1,22.56c-.12,13.18-9.85,22.74-22.92,22.53C319.52,162.06,311.14,152.84,311.38,139.31Z"/><path class="cls-1" d="M490.83,139.78A22,22,0,0,1,513,117.17a22.56,22.56,0,0,1,.95,45.11C501,162.64,491,152.9,490.83,139.78Z"/></svg>