<svg id="Capa_1" data-name="Capa 1" xmlns="http://www.w3.org/2000/svg" viewBox="0 0 846 345"><defs><style>.cls-1{fill:#ce0e2d;}</style></defs><path class="cls-1" d="M364,172.51c0,20.29,15,35.26,40.13,35.26a70.52,70.52,0,0,0,30.92-6.5l9.39,12.83c-13,6.87-25.49,10.46-44.7,10.46-40.05,0-69.5-19.29-69.5-52v0c0-32.75,29.45-52,69.5-52,19.21,0,30.25,2.81,43.78,8.61l-9.64,14.75c-10.24-5.46-19.16-6.57-29.75-6.57-25.1,0-40.13,14.94-40.13,35.23"/><path class="cls-1" d="M516.85,120.44c-38.79,0-66.75,19.3-66.75,52.06s28,52.06,66.75,52.06,66.76-19.29,66.76-52.06S555.64,120.44,516.85,120.44Zm0,87.92c-21.33,0-33.11-16-33.11-35.88s11.78-35.86,33.11-35.86,33.11,16,33.11,35.86S538.18,208.36,516.85,208.36Z"/><polygon class="cls-1" points="684.43 180.04 684.43 221.93 716.48 221.93 716.48 123.06 684.43 123.06 684.43 160.75 635.45 160.75 635.45 123.06 603.46 123.06 603.46 221.93 635.45 221.93 635.45 180.04 684.43 180.04"/><rect class="cls-1" x="277.17" y="123.06" width="33.75" height="98.87"/><path class="cls-1" d="M180.36,168.32v9.45a251.33,251.33,0,0,1,43.91,44.16h37.78c-13.14-15.44-33.3-33.79-48.16-43,17.44-.73,36.87-7.78,36.87-27.79,0-25.69-27.44-30.37-55.18-30.37-22.66,0-43.56,1-56.06,2.06v99.12H171V137.72a199.43,199.43,0,0,1,24.72-1.32c16.23,0,24.43,5.36,24.43,14.72C220.16,159.1,216.76,168.67,180.36,168.32Z"/></svg>