<svg id="Capa_1" data-name="Capa 1" xmlns="http://www.w3.org/2000/svg" viewBox="0 0 846 345"><defs><style>.cls-1{fill:#e11940;}.cls-2{fill:#e61540;}</style></defs><path d="M387.61,161.49v22.69H376V119.07c.92,0,1.73-.12,2.54-.12,13,0,25.93,0,38.9,0,6.31,0,12.12,1.59,17,5.79,11.65,10.11,8,29.53-6.58,35-2.08.78-4.28,1.21-6.3,1.77l22.15,22.2-.41.69c-4.74,0-9.49.06-14.23-.06a4,4,0,0,1-2.17-1.38q-9.9-9.87-19.69-19.83a5.08,5.08,0,0,0-4.12-1.67C398.05,161.56,393,161.49,387.61,161.49Zm.2-11.89a11.62,11.62,0,0,0,1.32.19c9.66,0,19.33.05,29,0a17.71,17.71,0,0,0,5.33-1,9,9,0,0,0,0-17.07,20.07,20.07,0,0,0-6.06-1c-9.08-.1-18.17-.05-27.25-.05h-2.37Z"/><path d="M707.71,184.26V119h2.68q17.1,0,34.22,0c17.63,0,30,11.46,31.37,29,.78,10.33-1.34,19.86-8.73,27.63a27.79,27.79,0,0,1-20.42,8.72c-12.64.2-25.29.06-37.93.06A11,11,0,0,1,707.71,184.26Zm11.95-53.55v41.93c8.71,0,17.21,0,25.71,0,9.56,0,16.25-5.27,18.17-14.58a32.55,32.55,0,0,0,.51-10c-1.21-11.21-8.29-17.3-19.61-17.31q-9.66,0-19.33,0Z"/><path d="M624.2,119c3.67,0,7.13-.12,10.58.08a4.54,4.54,0,0,1,2.49,1.72q20.46,22.83,40.85,45.73c.57.64,1.15,1.27,2.22,2.44V119.08H691.9v65.31c-4.18,0-8.36.07-12.53-.07-.71,0-1.49-.91-2.06-1.55q-19.59-22-39.13-44c-.6-.67-1.21-1.32-2.23-2.44v47.84H624.2Z"/><path d="M154.59,119.28v11.39h-37c-4.38,0-6.58,1.75-6.86,5.41-.44,5.87.9,8,5.8,8.73,10.06,1.44,20.13,2.78,30.21,4.11,7.53,1,11.42,4.91,11.92,12.41a79.47,79.47,0,0,1,.11,9.13A14.23,14.23,0,0,1,145,184.32c-15.12.24-30.25.06-45.37.05a2.6,2.6,0,0,1-.63-.2V172.71h41.36c4.36,0,6.29-1.3,6.55-4.37.54-6.25-.8-8.42-5.83-9.13-10.31-1.46-20.63-2.81-30.93-4.29-6.92-1-10.36-4.4-11-11.25a69.64,69.64,0,0,1-.16-12.08A13.16,13.16,0,0,1,112,119.12c13.88-.28,27.77-.1,41.66-.09A3.94,3.94,0,0,1,154.59,119.28Z"/><path d="M366.49,184.41c-3.87,0-7.42.1-11-.08a3.24,3.24,0,0,1-2.21-1.69c-2-4.22-3.94-8.51-5.8-12.82a2.59,2.59,0,0,0-2.77-1.84q-14.61.11-29.24,0a2.57,2.57,0,0,0-2.79,1.78c-1.85,4.3-3.9,8.53-5.76,12.83a2.49,2.49,0,0,1-2.73,1.85c-3.44-.12-6.89,0-10.7,0,1.07-2.38,2-4.46,2.93-6.53q12.92-28.29,25.78-56.61c.79-1.76,1.66-2.5,3.65-2.37,3.13.19,6.28-.05,9.41.12a3.25,3.25,0,0,1,2.37,1.45q14.31,31.32,28.44,62.72C366.23,183.47,366.3,183.78,366.49,184.41Zm-36.32-53c-3.85,8.49-7.45,16.45-11.18,24.67H341.3Z"/><path d="M616.17,184.41c-3.68,0-7.24.1-10.78-.07a3.28,3.28,0,0,1-2.24-1.66c-2-4.14-3.89-8.35-5.7-12.59a2.88,2.88,0,0,0-3.08-2.12q-14.5.14-29,0a2.78,2.78,0,0,0-3,2c-1.87,4.3-3.89,8.54-5.75,12.84a2.37,2.37,0,0,1-2.61,1.66c-3.44-.09-6.89,0-10.7,0,.46-1.09.78-1.9,1.14-2.7q13.77-30.19,27.52-60.42c.78-1.73,1.62-2.53,3.64-2.4,3.12.21,6.28,0,9.41.13a3.26,3.26,0,0,1,2.4,1.43q14.4,31.54,28.63,63.17A4,4,0,0,1,616.17,184.41Zm-47.41-28.32H591.1L580,131.41C576.13,139.89,572.53,147.81,568.76,156.09Z"/><path d="M163.41,184.41c2.19-4.82,4.19-9.22,6.2-13.62,7.54-16.54,15.12-33.07,22.6-49.64.75-1.67,1.62-2.34,3.49-2.25,3.21.17,6.44,0,9.65.11a3,3,0,0,1,2.21,1.36q14.38,31.55,28.61,63.17a7.08,7.08,0,0,1,.16.86c-3.88,0-7.7.06-11.51-.07-.55,0-1.26-.93-1.57-1.58-2-4.33-4-8.67-5.88-13.05a2.41,2.41,0,0,0-2.58-1.71c-9.83,0-19.66.07-29.49,0a2.6,2.6,0,0,0-2.73,1.9c-1.85,4.22-3.83,8.38-5.65,12.61a2.64,2.64,0,0,1-2.91,2C170.64,184.32,167.25,184.41,163.41,184.41Zm36.68-53c-3.86,8.5-7.49,16.51-11.17,24.63h22.27Z"/><path d="M256.86,150.21H288v11.64h-31.1V184.2H245.12V119.1H300v11.66H256.86Z"/><path d="M486.61,119.12h11.65v53.45h39c-1.39,3.93-2.61,7.49-4,11a2,2,0,0,1-1.55.81q-22.29,0-44.6,0c-.14,0-.29-.12-.58-.25Z"/><path d="M468.47,184.28H456.93v-65.1h11.54Z"/><path class="cls-1" d="M625.13,197.3c7.28,0,14.45-.29,21.58.11,4.82.27,6.93,3,7.14,7.56.21,4.37-2.13,7.46-6.53,8.63l-1.47.39,8.3,11.1c-4.88,1.18-6.1.76-8.81-2.91-.68-.93-1.38-1.85-2.05-2.79-4-5.62-4-5.57-11.1-5.28-1.56.07-2,.68-1.94,2.09.07,3,0,5.91,0,9.09h-5.14Zm12.72,12.47v.09c2.3-.11,4.61-.12,6.9-.34a3.65,3.65,0,0,0,3.67-3.87c0-2.34-1.18-3.84-3.51-4-4.44-.23-8.89-.28-13.34-.29-.43,0-1.17.82-1.25,1.34-1,6.75-.75,7,6,7Z"/><path class="cls-1" d="M616.2,205.55c-2.58.21-4.87.67-6.88-2.1-2.33-3.19-9-3.54-13.41-1.35a10.12,10.12,0,0,0-5.16,10.61c.72,4.82,3.67,7.87,8.55,8.58,3.78.55,7.47.37,10.38-2.57a26.28,26.28,0,0,0,2.39-3.52H601.72v-3.92H616.6v14.21c-2.63.68-2.63.68-4.33-2.25-10.63,4.38-18.74,3.65-23.72-2.13-3.9-4.53-4.38-12.58-1.08-18.12s10.62-8,18.71-6.31C612,197.89,615.66,201.06,616.2,205.55Z"/><path class="cls-1" d="M678.18,196.25c1.3.1,2.8.1,4.26.34,8.11,1.34,12.87,7.08,12.62,15.13s-5.64,13.66-13.87,14.25a31.71,31.71,0,0,1-9.08-.45c-7.79-1.76-11.83-7.68-11.16-15.66.65-7.75,5.68-12.72,13.59-13.41C675.69,196.35,676.84,196.32,678.18,196.25Zm-.3,25.55a42.88,42.88,0,0,0,4.38-.68c4.66-1.22,7.21-4.57,7.39-9.55s-2.26-8.52-6.79-10a15.28,15.28,0,0,0-10,0,9.15,9.15,0,0,0-6.65,8.83C665.92,217.48,670.21,221.64,677.88,221.8Z"/><path class="cls-1" d="M742.81,196.7c7.48.26,14.89.25,22.25.87,4.14.35,6.2,3.46,6.34,7.85s-1.73,7.46-5.9,8.17-8.2.53-12.31.72a28.82,28.82,0,0,1-3.22,0c-1.51-.08-2.06.59-2,2.05.06,2.13-.1,4.28,0,6.41s-.47,3.13-2.74,2.76a17.79,17.79,0,0,0-2.44,0ZM748,209.62c5,0,9.75.16,14.42-.06,2.53-.12,3.75-1.82,3.59-4.16a3.6,3.6,0,0,0-3.83-3.71c-4.21-.13-8.42-.16-12.63-.12-.52,0-1.45.68-1.48,1.1C747.92,204.94,748,207.22,748,209.62Z"/><path class="cls-1" d="M702.79,197.06h5.14c0,.91.11,1.78.11,2.66,0,4.69,0,9.38.06,14.07.09,4.33,2.12,6.7,6.36,7.54a18.6,18.6,0,0,0,3.94.31c6.67-.11,9.26-2.75,9.28-9.38,0-5,0-10,0-15.16h5.19c.07.84.19,1.7.2,2.56,0,4,0,8.07,0,12.1,0,9.81-3.37,13.62-13.27,14.31a30,30,0,0,1-9.73-1.14c-4.55-1.23-7-4.77-7.21-9.33C702.56,209.54,702.79,203.44,702.79,197.06Z"/><path class="cls-2" d="M70,119.6c2.06-.62,2.6.2,2.56,1.91-.08,3.36,0,6.72,0,10,3.94,1.23,4.41.89,4.42-2.86q0-3.33.05-6.66c0-.15.12-.3.27-.62l2.44-.15v10.32a3.69,3.69,0,0,0,.85.4c4.1.5,4.22.39,4.22-3.61v-8.81c2-.7,2.82-.29,2.79,1.75-.09,4.5,0,9,0,13.72H70Z"/><path class="cls-2" d="M87.49,156.85v3H70l-.13-2.9h7c0-4,0-7.65-.08-11.3,0-.41-1.1-1-1.73-1.11-1.62-.16-3.26-.06-5-.06v-3.05H87.38v3.06c-1.85,0-3.65.06-5.43,0-1.53-.07-2.27.38-2.21,2.07.11,2.79.09,5.59,0,8.38,0,1.55.65,2,2.08,2C83.61,156.8,85.42,156.85,87.49,156.85Z"/><path class="cls-2" d="M87.46,172.43v3.19H77.84c-5.27,0-5.27,0-5.27,5.14,0,.24,0,.49,0,.74,0,2.24,0,2.24-2.57,1.88V164.56l2.53-.25v8.12Z"/></svg>