<svg id="Capa_1" data-name="Capa 1" xmlns="http://www.w3.org/2000/svg" viewBox="0 0 846 345"><defs><style>.cls-1{fill:#0147a2;}</style></defs><path class="cls-1" d="M478.52,90.75v139.6h5.13c.54,1.87.67,11.82.24,15.19a22.47,22.47,0,0,1-2.24.2q-15.3,0-30.59,0c-.78,0-1.57-.12-2.46-.19-.08-1.35-.15-2.5-.24-4-1.11.35-2.06.64-3,.95a42.47,42.47,0,0,1-11.62,2.17c-9,.41-16.45-2.88-22.75-9.15-5.47-5.44-8.69-12.09-10.59-19.46-2.22-8.62-2.51-17.41-2-26.23.32-5.78.75-11.57,1.55-17.3,1.1-7.82,3.35-15.36,7.69-22.06a55.32,55.32,0,0,1,23.19-20.33c5-2.37,10.27-4.27,15.42-6.38.8-.33,1.63-.61,2.39-.9V92.4c-1.94,0-3.76-.13-5.55,0-7.3.65-14.61,1.29-21.89,2.12-6.69.76-13.4,1.57-20,2.72-10.68,1.84-21.37,3.74-32,6a328.1,328.1,0,0,0-59.25,18.56c-13.6,5.8-26.63,12.64-38.48,21.55-8,6-15.26,12.85-20.91,21.22a49.39,49.39,0,0,0-8.06,19.11c-1.85,10.55.27,20.41,5.48,29.67,4.79,8.49,11.34,15.46,18.77,21.67,9.62,8,20.33,14.38,31.52,20q.78.39,1.56.81c.12.06.2.19.51.48a5.26,5.26,0,0,1-1.24-.09c-18.28-6.33-35.94-14-52.06-24.8a101.72,101.72,0,0,1-22.64-20.08c-5.23-6.46-9.27-13.55-11.09-21.75A41.56,41.56,0,0,1,217,161.4c4.1-8.28,10-15.14,16.84-21.26a140.51,140.51,0,0,1,27.73-18.94c16.94-9.08,34.85-15.7,53.26-21A443.47,443.47,0,0,1,370,88.09c11.81-1.83,23.66-3.31,35.56-4.37,13.88-1.24,27.78-2.21,41.72-2.24.36,0,.72,0,1.25-.07.08-.56.15-1.09.27-2h-5.26v-14h34.79V81.22a13.58,13.58,0,0,0,1.66.3c7,.33,14.07.49,21.09,1,9,.66,18,1.46,26.93,2.48s17.89,2.23,26.79,3.64a390.67,390.67,0,0,1,50.39,11.18c9,2.67,17.81,5.84,26.7,8.8a5.92,5.92,0,0,1,1.84,1C583,95.28,531.24,90.18,478.52,90.75Zm-29.91,49.17a11.34,11.34,0,0,0-5.51,2.51,32.28,32.28,0,0,0-8.86,10.79,64.7,64.7,0,0,0-5.86,17.47,99.16,99.16,0,0,0-1.26,29.13A75.92,75.92,0,0,0,431.49,220c1.22,3.23,2.81,6.3,5.72,8.44a9.22,9.22,0,0,0,5.71,2,7.71,7.71,0,0,0,4.9-2.21c1.22-1,.91-2.39.91-3.67q0-41.16,0-82.32C448.73,141.48,448.66,140.77,448.61,139.92Z"/><path class="cls-1" d="M345.88,227.46c.87-.29,1.41-.49,2-.66a21.46,21.46,0,0,0,14.64-14.06c1.91-5.46,2.86-11.09,1.39-16.85-.87-3.46-2.8-6.41-4.76-9.35-3-4.5-6.11-9-8.85-13.65a64.83,64.83,0,0,1-8.7-23.59,37.78,37.78,0,0,1,.52-14.64c2.56-10.22,8.89-16.88,18.95-20.15a43.05,43.05,0,0,1,19.3-1.86,11.59,11.59,0,0,1,4.07,1.51,18.36,18.36,0,0,1,5.49,5,41.92,41.92,0,0,1,6.18,11.6c.26.74.4,1.53.66,2.55-4.64,1.53-9.25,2.48-13.9,3.69a22.85,22.85,0,0,0-1.08-2.12,34.41,34.41,0,0,0-2.91-4.1,5.45,5.45,0,0,0-2.76-1.67c-3.56-.7-6.21.27-7.11,4.23a17,17,0,0,0,.91,9.72,58.4,58.4,0,0,0,6.36,12c2.95,4.47,6,8.86,9.08,13.26a53.32,53.32,0,0,1,9.78,34.88A37.06,37.06,0,0,1,387,223.81a40.5,40.5,0,0,1-28.14,15.86l-.43,0c-4.12.32-4.12.32-6.43-3.07-1.61-2.36-3.23-4.72-4.83-7.09C346.78,229,346.42,228.32,345.88,227.46Z"/><path class="cls-1" d="M536.38,133.44,522.47,137c-.4-.77-.69-1.43-1.08-2a33.37,33.37,0,0,0-2.87-4.13,6.15,6.15,0,0,0-7.25-1.43,4.51,4.51,0,0,0-2.51,3.15,13.41,13.41,0,0,0-.14,7.38,37.11,37.11,0,0,0,5.13,11.61c3.47,5.44,7,10.83,10.76,16.09A53.1,53.1,0,0,1,534.15,191c1.4,9.61.54,18.93-4.27,27.55-6.52,11.66-16.29,18.82-29.63,20.81-1.73.26-3.5.26-5.25.38a1.94,1.94,0,0,1-1.89-.88c-2.41-3.59-4.84-7.17-7.25-10.75a1.66,1.66,0,0,1-.08-.56,5.08,5.08,0,0,1,1.06-.56c9.06-2.5,14.08-8.76,16.35-17.58,2.16-8.39,1-16.13-4.56-23-.74-.91-1.44-1.86-2.11-2.82C490,174.44,484.59,164.74,482,153.7c-1.68-7.24-2.07-14.55.38-21.71a25.8,25.8,0,0,1,14.46-16,41.43,41.43,0,0,1,23-3.36,10.6,10.6,0,0,1,3.49,1.22,19.65,19.65,0,0,1,6.66,6,40.85,40.85,0,0,1,5.75,11.08C536,131.66,536.13,132.43,536.38,133.44Z"/><path class="cls-1" d="M416.11,253.92c.83-.06,1.47-.14,2.12-.14,2.56,0,5.11,0,7.86,0a15.87,15.87,0,0,1,.3,2.07c0,7.18,0,14.37,0,21.55a9.79,9.79,0,0,1-.16,1.22,11.19,11.19,0,0,1-5.36.26c-.39,0-.87-.7-1-1.17a7.16,7.16,0,0,1-.07-2c0-4.07,0-8.15-.3-12.26q-1.54,6-3.1,12.06c-.11.43-.21.86-.32,1.28-.54,2-.69,2.13-2.65,2.2-3.71.15-3.73.16-4.66-3.46s-1.79-7.11-2.9-10.68a11.85,11.85,0,0,0-.16,1.46c0,3.37,0,6.74,0,10.11,0,2.18-.36,2.52-2.58,2.57-1.1,0-2.2,0-3.29-.05a3.27,3.27,0,0,1-.79-.21c-.49-1.8-.58-22.22-.08-24.81.93-.05,1.93-.14,2.92-.16,1.62,0,3.23,0,4.84,0,1.92,0,2.47.42,3,2.25.76,2.83,1.45,5.68,2.18,8.51a11.59,11.59,0,0,0,.81,2.36C414.09,262.71,414.87,258.37,416.11,253.92Z"/><path class="cls-1" d="M336.92,278.7V254a13.06,13.06,0,0,1,1.62-.23c3.45,0,6.9-.06,10.34,0,4.38.08,8.51,2.95,9.62,6.8a18.9,18.9,0,0,1,.19,11.07,11.81,11.81,0,0,1-1.57,3.11,9.07,9.07,0,0,1-7.81,4.17c-3.67,0-7.33,0-11,0A6.88,6.88,0,0,1,336.92,278.7Zm7.84-6c1.12,0,2.13.07,3.12,0,1.79-.16,3-1.09,3.11-2.83a36.28,36.28,0,0,0,0-6.34,3.18,3.18,0,0,0-2.61-2.92,27.85,27.85,0,0,0-3.59-.28Z"/><path class="cls-1" d="M533.34,279.5a31.71,31.71,0,0,1-3.93-.35,10.09,10.09,0,0,1-7.91-7.42,17.39,17.39,0,0,1-.1-10.18A12,12,0,0,1,532,253.33c.73,0,1.47,0,2.2,0A11.9,11.9,0,0,1,546.1,265c0,1,0,2.05,0,3.07-.1,6.39-5,11.66-11.64,11.41h-1.1Zm4.76-12.93a30.49,30.49,0,0,0-.51-3.34,4.15,4.15,0,0,0-4-3.19,4.08,4.08,0,0,0-4.46,2.81,11.43,11.43,0,0,0,0,7.55,4.09,4.09,0,0,0,4.36,2.66,4,4,0,0,0,4-3.09A34.17,34.17,0,0,0,538.1,266.57Z"/><path class="cls-1" d="M371.11,260v3.11h11a10.31,10.31,0,0,1,.16,5.45h-11.1v4.1c.78,0,1.55.11,2.33.12,2.79,0,5.57,0,8.36,0,1.59,0,1.74.2,1.8,1.8.05,1.3,0,2.61,0,4.14a18.13,18.13,0,0,1-2.26.3c-5.35,0-10.7,0-16,0-2.17,0-2.31-.18-2.31-2.45,0-6.74,0-13.48,0-20.23a19.69,19.69,0,0,1,.28-2.4h20.19c0,1.59.06,3,0,4.47-.07,1.16-.86,1.58-2,1.57-2.64,0-5.28,0-7.92,0Z"/><path class="cls-1" d="M439,260v2.94c3.74.61,7.48-.08,11.12.4a8.05,8.05,0,0,1-.05,5.22h-11v4.08c.71,0,1.42.13,2.12.14,2.86,0,5.72,0,8.57,0,1.63,0,1.77.19,1.82,1.78.05,1.37,0,2.75,0,4.25a18.52,18.52,0,0,1-1.9.21q-8,0-16.05,0c-.37,0-.74,0-1.1,0a1.34,1.34,0,0,1-1.48-1.51c0-.59,0-1.17,0-1.76q0-9.34,0-18.7c0-.51,0-1,0-1.54.11-1.37.35-1.61,1.75-1.68,1,0,2.06,0,3.08,0h15.45c0,1.75.09,3.26,0,4.76-.06,1.08-.84,1.44-1.85,1.43-2.64,0-5.28,0-7.92,0Z"/><path class="cls-1" d="M479,254.31c-2.48,3.94-5,7.87-7.48,11.87l8.11,12.39A8,8,0,0,1,478,279c-1.61.05-3.23-.05-4.83.05a3,3,0,0,1-3.21-1.75c-.71-1.36-1.56-2.65-2.37-4-.3-.47-.66-.92-1.17-1.63a55.52,55.52,0,0,0-3.08,5,3.79,3.79,0,0,1-4.17,2.37c-1.86-.15-3.75,0-6.12,0,.61-1.1.95-1.79,1.37-2.43,2-3,3.88-6,6-9a2.41,2.41,0,0,0,0-3.3c-1.85-2.63-3.57-5.36-5.29-8.09a17.56,17.56,0,0,1-1-2.43c2.91,0,5.39-.07,7.86,0,.49,0,1.09.66,1.39,1.17.82,1.39,1.49,2.86,2.24,4.28.27.5.62.95,1.15,1.74,1-1.81,2-3.33,2.78-4.94a3.64,3.64,0,0,1,4-2.38c1.73.16,3.49,0,5.24,0Z"/><path class="cls-1" d="M511.17,263.22c-.36-.62-.58-1.08-.87-1.49a4.14,4.14,0,0,0-7.11.43,10.74,10.74,0,0,0,0,9,3.44,3.44,0,0,0,3.42,2,3.69,3.69,0,0,0,3.65-2c.41-.76.72-1.58,1.2-2.63,2,.61,3.92,1.2,5.85,1.81a1.07,1.07,0,0,1,.78,1.53c-1.05,3.26-3.74,7.33-8.49,7.5a57.83,57.83,0,0,1-6.58-.16,8,8,0,0,1-6.82-4.88c-2.54-5.43-2.74-10.91.48-16.18a9.48,9.48,0,0,1,6.3-4.42,16.7,16.7,0,0,1,7.41,0c3.58.82,5.73,3.37,7.25,6.52.46,1,.19,1.48-.92,1.77C515,262.44,513.15,262.78,511.17,263.22Z"/><path class="cls-1" d="M489.87,253.78v25.07a27.82,27.82,0,0,1-7.57-.12c-.05-.89-.12-1.6-.12-2.32q0-10,0-20c0-.44,0-.88,0-1.32a1.25,1.25,0,0,1,1.38-1.34Z"/></svg>