<svg id="Capa_1" data-name="Capa 1" xmlns="http://www.w3.org/2000/svg" viewBox="0 0 846 345"><defs><style>.cls-1{fill:#1c3760;}.cls-2{fill:#e21919;}</style></defs><path class="cls-1" d="M230,158.09c0,10.76.43,21.55-.1,32.28-.94,19.28-10,31.09-28.29,36.72-15.92,4.91-31.64,3.84-46.07-5-11.68-7.16-16.31-18.75-16.57-31.84-.43-21.52,0-43.05-.28-64.57-.14-10.49,7.29-9.28,13.68-9.42,6.86-.16,13.08.17,12.79,10.29-.56,19.43-.19,38.88-.12,58.32,0,9.71,2.78,18,13.08,21.34C192.83,211,204,202.52,204.29,186c.34-19.44.68-38.91-.14-58.32-.47-11.24,6-11.38,13.79-11.56,8.2-.2,13.18,1.94,12.43,11.78-.77,10-.17,20.13-.17,30.19Z"/><path class="cls-1" d="M287.19,115.35a55,55,0,0,1,17.42,2.75c9.55,3,13.71,12.38,9.83,21.47-2.16,5.07-5.62,4.07-9.39,2.29-5.65-2.68-11.32-5.37-17.78-5.27-5.21.09-9.86,1.59-11.34,7.18-1.39,5.25,1.9,8.65,6.11,10.87,7.35,3.88,15,7.2,22.32,11.14,11.89,6.4,17.43,16.66,16.63,30-.81,13.59-7.22,23.68-20,29.28-15.22,6.69-30.37,6.07-45.3-.78-7.64-3.5-11.26-14.78-7.5-22.18,2.56-5,6.09-3.4,9.56-1.31,7.32,4.4,15.14,6.85,23.76,6.27,5.59-.37,10.41-2.21,12-8.13,1.69-6.27-2.52-9.78-7.21-12.37-4.54-2.52-9.46-4.32-14.16-6.56-18.81-8.94-26.12-22-22.25-39.76C253.41,124.32,266.93,115.27,287.19,115.35Z"/><path class="cls-1" d="M478.31,151.91c4.07-11.06,7.32-19.11,10-27.36s8.93-8.62,15.84-8c8.39.78,5.8,7.34,5.91,12,.3,11.81.05,23.63.13,35.45,0,4.12-.1,7.68-5.71,7.82s-7.19-2.65-7-7.74c.22-7.6.06-15.22-2.28-23.51-3.06,8.08-6.27,16.11-9.1,24.27-1.52,4.39-3.56,7.22-8.81,7-4.84-.2-6.42-3.11-7.73-7-2.7-8.06-4.67-16.44-10.93-23.66,0,6.66.15,13.32-.05,20-.14,4.48,1.9,10.45-6.07,10.63-8.77.2-6.51-6.32-6.59-11.08-.2-11.12-.14-22.25,0-33.37.05-4.65-1.39-10.55,6.19-10.77,6.48-.19,13.4-1.49,16.12,7.44C470.75,132.55,474.21,140.8,478.31,151.91Z"/><path class="cls-1" d="M436.79,143.25c0,19.5-8.85,29.21-26.85,29.25-17,0-25.78-9.54-25.71-28,.08-18,10-28.7,26.79-28.91C428.38,115.4,436.73,124.35,436.79,143.25Zm-38.6.79c-.07,11.37,3.93,16.93,12.22,17s12.81-5.86,12.92-16.65c.12-11.41-3.84-16.84-12.28-16.83S398.26,133.08,398.19,144Z"/><path class="cls-1" d="M654.82,143.59c0-6.59.28-13.19-.09-19.75-.3-5.41,1.74-7.46,7.11-7.38s5.39,3.18,6.11,7.36c.83,4.84-5,12.54,4.84,14.17,10.3,1.71,12.51-.44,12.8-11.08.12-4.41-2.06-10.18,6.06-10.45,8.45-.29,7.18,5.4,7.18,10.52,0,12.47-.18,25,.07,37.42.11,5.36-1.84,7.55-7.22,7.46s-6.45-2.93-6.14-7.39c.13-1.72-.11-3.47,0-5.19.58-6.55.08-10.7-8.91-10.71-8.78,0-9.24,3.62-9.18,10.43,0,4.45,3.13,11.12-4.73,12.64-4.49.87-8.28,0-8-6.22C655.06,158.15,654.82,150.86,654.82,143.59Z"/><path class="cls-2" d="M540.7,198.24c0,7.83-.06,15.66,0,23.49,0,3.55-.63,6.07-5,6.18-4.65.11-6-2.1-5.9-6.39.17-11.46-.06-22.93.14-34.39.06-3.43-1.89-8.54,3.9-9.14,5.3-.55,11.16-1.76,14.39,5A68,68,0,0,0,561,202c0-6,.06-12.11,0-18.16-.05-3.42.18-6.11,4.81-6.15,4.32,0,6.33,1.25,6.26,5.89-.2,11.81,0,23.63-.08,35.44,0,3.7.82,8.13-4.79,8.74-4.68.51-9,.15-11.54-4.85-4.19-8.35-8.54-16.62-12.83-24.92Z"/><path class="cls-2" d="M664.49,202.39c0-1.39-.45-3,.08-4.13,3-6.55-7-18.43,6.24-20.17,23.08-3,33.3,3,35.94,18.44s-3.85,26.86-16.9,30C666.5,232.2,664.49,230.29,664.49,202.39Zm11.93-.09c0,3.09.24,6.21,0,9.28-.78,8.25,3.59,8.46,9.5,6.24,5.44-2,7.76-6.56,8.55-11.92.94-6.43-.1-12.41-5.4-16.85-3.08-2.58-7-3.65-10.61-2.21s-1.56,5.42-1.93,8.25A54.14,54.14,0,0,0,676.42,202.3Z"/><path class="cls-1" d="M338.11,143.88c.54-20.25,15-32.37,32.54-27.14a17.61,17.61,0,0,1,7.18,3.85,7.72,7.72,0,0,1,.92,9.65c-2.27,3.72-4.81.23-7-.79-5.87-2.69-11.42-3.23-16,2.21-4.35,5.16-4.6,19.54-.42,24.74,4.35,5.4,9.83,5.48,16,3.21,2.57-1,6.32-5.62,8.17.6,1.32,4.44-.47,7.82-5,10.08C355.75,179.61,337.5,166.43,338.11,143.88Z"/><path class="cls-1" d="M606,145.67c.43-22.27,15.19-34.54,33.06-28.81,3.29,1.06,6.79,2.09,7.87,6,.74,2.71,1.21,5.79-.76,8-2.25,2.51-4.4-.16-6.39-1.17-5.78-2.94-11.33-3.47-16.06,1.75s-5.21,18.73-.86,24.63c4.13,5.61,9.59,5.86,15.8,3.71,2.66-.92,6.22-5.58,8.41.1,1.66,4.29-.08,7.88-4.52,10.27A24.34,24.34,0,0,1,607,153.55C606.35,150.51,606.2,147.37,606,145.67Z"/><path class="cls-2" d="M360,177.87c4.65-.57,7.93.22,9.58,5.49,3.81,12.19,8.37,24.14,12.41,36.27.86,2.59,3.63,6.43-1.1,7.77-3.76,1.06-7.89,1.64-10.65-3.41-5.48-10.05-15.54-10.22-20.66-.31-2.37,4.58-5.91,5-9.43,3.9-5.14-1.6-2.23-5.66-1.25-8.61,3.92-11.8,8.24-23.47,12-35.3C352.46,178.82,355.2,176.9,360,177.87Zm.1,14.3c-2.51,5.58-5.82,9.78-3.47,14.86.42.9,5.83,1.05,6.43.06C366.06,202,361.15,198.07,360.05,192.17Z"/><path class="cls-2" d="M523.79,223.47c.12,2.38-.56,4-2.62,4.13-3.32.21-6.82,1.35-9.56-2-9.89-12.22-10.89-12.18-22.6.27-2.53,2.68-5.77,2.5-8.69,1.68-4.09-1.16-2.29-4.27-1.42-6.79,4.38-12.74,9-25.4,13.14-38.23,1.61-5,5.11-4.72,9-4.75s7.23-.05,8.82,4.94c4,12.5,8.56,24.82,12.89,37.21C523.18,221.2,523.52,222.55,523.79,223.47ZM499.34,191.4c-.22,7.09-5.7,11-1.42,15.92.81.93,5.16.59,5.59-.29C506.07,201.86,502.56,198,499.34,191.4Z"/><path class="cls-1" d="M566.42,143.71v-4.16c0-24.44,3.21-27,28.19-23,3.2.51,5.14,1.41,5.21,5,.08,3.81-1.38,5.94-5.37,5.94-3.13,0-6.26.21-9.37,0-3.91-.27-5.64,1-5.54,5.23s2,5.52,5.82,5.07a2.81,2.81,0,0,1,1,0c3.73,1.07,10-3,10.49,4.6.54,8.37-6.15,5.66-10.39,5.79s-7.12.37-7.06,6c0,5.38,1.65,6.86,7.07,7.25,4.72.34,13.83-4.81,13.25,5.6-.48,8.75-8.76,4.63-13.36,4.66-22.16.13-19.81,3.76-20-19.59C566.4,149.26,566.42,146.49,566.42,143.71Z"/><path class="cls-2" d="M389.53,202.31V193c0-16.4,0-16.76,16.53-15.09,18.76,1.91,25.09,9.36,24,27.59-.82,13.77-9.19,21.83-24.72,22.4-15.82.58-15.82.58-15.83-15.16Zm11.57.37c0,3.11.33,6.26-.06,9.31-1.13,8.79,3.35,7.67,9,5.66,6.21-2.19,8.08-7.24,8.77-12.8.74-6,0-11.94-5.45-15.77-3.07-2.17-6.92-4.13-10.61-2.14-3.27,1.77-1.33,5.59-1.65,8.49A67.39,67.39,0,0,0,401.1,202.68Z"/><path class="cls-2" d="M458.75,209.42c2.8-8.53,6-16.94,8.24-25.61,1.53-6.09,5.45-7.14,10.05-5.77,6.09,1.82,1.92,6.18,1,9.13-3.45,11.26-7.43,22.37-11,33.6-1.55,4.86-3.89,7.44-9.59,7.27-5.34-.16-8.11-1.78-9.7-7.07-3.5-11.62-7.85-23-11.34-34.6-.74-2.45-5.33-6.71.69-8.25,4.53-1.16,9.6-1.63,11.42,5.26,2.3,8.65,5.4,17.09,8.16,25.62Z"/><path class="cls-2" d="M624.84,202.67v-3.13c0-23.88,1.35-25,25.81-21.81,2.58.33,4.76.32,4.8,3.79s-1.52,5-5,4.82c-2.77-.14-5.55.06-8.32,0-3.24-.09-5.21.86-5.22,4.62s.83,6.14,5.11,5.88a3,3,0,0,1,1,0c3.45,1,9.41-2.7,9.73,4.18.32,7.11-5.71,4.14-9.24,4.66-5.64.81-9,6.25-6.21,10.84,2.26,3.72,6.23,1.86,9.45,2.48s8.46-2.34,8.7,4.08c.28,7.35-5.59,4.59-9,4.66C624.85,228.18,624.84,228.07,624.84,202.67Z"/><path class="cls-2" d="M579.93,203.49c-.13-20,12.79-30.91,30.45-25.79,3.84,1.11,7.29,2.43,7.3,7.35,0,4.27-.91,7.32-5.9,4.21-6.68-4.17-12.81-4.28-16.63,3.25-4,7.89-4.17,16.19,2.11,23.24,3.39,3.81,7.94,3.57,12.44,1.5,2.53-1.17,5.81-4.54,7.63-.21s-.08,7.63-4.89,9.78C595.59,234.38,580.06,223.39,579.93,203.49Z"/><path class="cls-1" d="M531.49,149c0-3.8-.34-7.64.07-11.4.74-6.74-.87-10.78-8.74-9.5-4.5.74-6.13-1.59-6.16-5.93,0-4.74,2.48-5.73,6.55-5.68,10,.14,20.06.07,30.09,0,3.55,0,6,.91,6,5.19s-1.24,7.11-5.83,6.32c-8.93-1.53-9.28,3.57-9,10.24.38,9-.07,18,.15,27,.12,5.17-2.49,6.55-7,6.53-4.3,0-6.35-1.7-6.19-6.19C531.64,160.1,531.49,154.56,531.49,149Z"/></svg>